<svg width="40" height="40" viewBox="0 0 40 40" fill="none" xmlns="http://www.w3.org/2000/svg">
<path d="M4.57065 2.77984C2.88394 1.11428 0 2.29332 0 4.64824V26.1579C0 26.8901 0.301714 27.5509 0.787988 28.0295L7.3278 34.4889V13.6115C7.3278 12.3834 7.8205 11.2534 8.71601 10.4278C9.38684 9.80815 10.2567 9.41989 11.165 9.2947L4.57065 2.77984Z" fill="url(#paint0_linear_7261_9305)"/>
<path d="M24.5388 19.6749C24.7859 19.6749 25.0202 19.5798 25.1952 19.4071L30.9229 13.7511L34.192 10.5214C34.8949 9.82891 35.7873 9.41529 36.7405 9.29326L30.1622 2.79584L30.1606 2.79901C29.1881 1.83232 27.4965 1.65007 26.3523 2.77999L17.3538 11.6656C17.1227 11.8938 16.8563 12.065 16.5754 12.1918L23.8824 19.4071C24.0589 19.5798 24.2916 19.6749 24.5388 19.6749Z" fill="url(#paint1_linear_7261_9305)"/>
<path d="M39.2281 11.7542C39.1029 11.6306 38.9665 11.5212 38.822 11.4261C38.7739 11.3944 38.7193 11.3722 38.6696 11.3437C38.5685 11.2851 38.469 11.2264 38.3614 11.1821C38.2988 11.1551 38.2314 11.1409 38.1672 11.1187C38.0661 11.0854 37.9666 11.049 37.8639 11.0268C37.7917 11.0125 37.7195 11.0093 37.6457 10.9998C37.5462 10.9871 37.4467 10.9713 37.3439 10.9697C37.3295 10.9697 37.3151 10.965 37.299 10.965C37.2204 10.965 37.1401 10.9808 37.0615 10.9871C36.9877 10.9935 36.9154 10.9951 36.8432 11.0078C36.7437 11.0252 36.6458 11.0569 36.5495 11.087C36.4821 11.106 36.4131 11.1203 36.3473 11.1456C36.2398 11.1868 36.1371 11.247 36.0328 11.3041C35.9798 11.3342 35.9236 11.3548 35.8707 11.3881C35.7182 11.4879 35.569 11.6052 35.4293 11.7431L30.9229 16.1946L26.4325 20.6287C26.1404 20.9155 25.797 21.1152 25.4327 21.242C25.1582 21.3387 24.8726 21.3941 24.5837 21.3989C24.5692 21.3989 24.5548 21.4036 24.5387 21.4036C24.229 21.4036 23.9193 21.3418 23.624 21.2357C23.2677 21.1073 22.9323 20.9108 22.6466 20.6287L13.6498 11.7462L13.6481 11.7431C13.5246 11.621 13.3914 11.518 13.2566 11.4261C13.2164 11.3976 13.1731 11.3738 13.1314 11.3485C13.0319 11.2898 12.9308 11.236 12.8281 11.1916C12.7831 11.171 12.7366 11.1504 12.69 11.1329C12.5745 11.0902 12.4573 11.0569 12.3402 11.0315C12.3097 11.0236 12.2792 11.0141 12.2471 11.0078C12.0995 10.9808 11.9502 10.9681 11.8026 10.9665C11.7929 10.9665 11.7833 10.9634 11.7737 10.9634C11.748 10.9634 11.7223 10.9697 11.6966 10.9713C11.5747 10.9745 11.4543 10.9856 11.3355 11.0046C11.289 11.0125 11.2441 11.0204 11.1991 11.0299C11.0756 11.0569 10.9552 11.0917 10.8364 11.1345C10.8107 11.144 10.7819 11.152 10.7562 11.1615C10.615 11.2185 10.4785 11.2867 10.3485 11.3659C10.3148 11.3849 10.2844 11.4087 10.2523 11.4309C10.1544 11.4959 10.0613 11.5656 9.97301 11.6432C9.9377 11.6733 9.904 11.7035 9.8719 11.7336C9.7724 11.8286 9.68093 11.9301 9.59908 12.0394C9.58784 12.0553 9.575 12.0679 9.56377 12.0822C9.4739 12.2074 9.39686 12.3437 9.32946 12.4863C9.3102 12.5259 9.29576 12.5671 9.27971 12.6083C9.23317 12.7193 9.19626 12.835 9.16576 12.957C9.15293 13.0029 9.14169 13.0489 9.13206 13.098C9.09996 13.2628 9.0791 13.4324 9.0791 13.6131V35.1211C9.0791 35.8485 9.376 36.5062 9.85746 36.9848C10.2202 37.3461 10.6888 37.6028 11.2136 37.7106C11.3885 37.7455 11.5698 37.7645 11.7544 37.7645H37.3231C38.432 37.7645 39.3821 37.0989 39.7898 36.1496C39.9246 35.8343 40 35.4856 40 35.1211V13.6131C40 12.8492 39.6935 12.2122 39.2281 11.7542Z" fill="url(#paint2_linear_7261_9305)"/>
<defs>
<linearGradient id="paint0_linear_7261_9305" x1="-0.00249117" y1="18.2421" x2="11.1671" y2="18.2421" gradientUnits="userSpaceOnUse">
<stop stop-color="#FFA6A6"/>
<stop offset="1" stop-color="#FF47AF"/>
</linearGradient>
<linearGradient id="paint1_linear_7261_9305" x1="16.5709" y1="10.8369" x2="36.7442" y2="10.8369" gradientUnits="userSpaceOnUse">
<stop stop-color="#FFA6A6"/>
<stop offset="1" stop-color="#FF47AF"/>
</linearGradient>
<linearGradient id="paint2_linear_7261_9305" x1="9.0722" y1="24.362" x2="40.0057" y2="24.362" gradientUnits="userSpaceOnUse">
<stop stop-color="#FFA6A6"/>
<stop offset="1" stop-color="#FF47AF"/>
</linearGradient>
</defs>
</svg>
