<svg width="128" height="128" viewBox="0 0 128 128" fill="none" xmlns="http://www.w3.org/2000/svg">
<g clip-path="url(#clip0_13678_72437)">
<path d="M75.7678 23.8751C91.5176 22.7498 107.643 28.1496 119.718 40.1499C121.143 41.5749 123.543 41.5749 124.968 40.1499C126.468 38.6499 126.468 36.3249 124.968 34.8246C123.393 33.2499 121.818 31.8249 120.168 30.4744C104.118 17.4243 83.1178 13.2996 63.9927 18.3243C56.9427 20.0496 50.1924 23.0493 43.9679 27.3244C49.3677 21.0246 56.1929 15.6746 63.9927 12.3C70.8175 9.14979 78.4678 7.50003 86.4928 7.50003C88.5931 7.50003 90.2428 5.84977 90.2428 3.75001C90.2428 1.64976 88.5931 0 86.4928 0C78.5428 0 71.0427 1.42501 63.9927 4.12502C43.5176 11.8505 27.9173 30.2499 23.8676 52.3752C23.7926 50.9502 23.6423 49.5252 23.6423 48.1002C23.6423 33.1001 29.4926 18.9251 40.1424 8.35003C41.6424 6.85003 41.6424 4.44977 40.1424 3.02476C38.7174 1.52476 36.3174 1.52476 34.8171 3.02476C22.8173 15.0246 16.142 31.0749 16.142 48.0999C16.142 61.0747 20.0423 73.45 27.2418 83.9498C15.317 73.6748 7.50674 58.45 7.50674 41.4999C7.50674 39.3997 5.85699 37.7499 3.75673 37.7499C1.73147 37.7499 0.00671387 39.3997 0.00671387 41.4999C0.00671387 72.6253 22.6668 98.5751 52.2169 104.125C36.4671 105.25 20.3418 99.8499 8.342 87.8501C6.84199 86.4251 4.51698 86.4251 3.01673 87.8501C1.51672 89.3501 1.51672 91.6751 3.01673 93.1754C15.467 105.625 31.7421 111.85 48.0919 111.85C53.4172 111.85 58.7417 111.175 63.992 109.75C69.242 108.475 74.417 106.375 79.2918 103.6C80.942 102.7 82.5168 101.725 84.0918 100.675C82.817 102.175 81.3918 103.6 79.9668 104.95C72.037 112.27 64.1792 115.642 63.9917 115.7C57.1669 118.85 49.5167 120.5 41.4916 120.5C39.4664 120.5 37.7416 122.15 37.7416 124.25C37.7416 126.35 39.4664 128 41.4916 128C49.4417 128 56.9417 126.575 63.9917 123.875C66.6415 122.548 98.3053 110.511 104.117 75.6248C104.267 77.0498 104.342 78.4748 104.342 79.8998C104.342 94.8999 98.4916 109.075 87.8418 119.65C86.4168 121.15 86.4168 123.55 87.8418 124.975C89.3418 126.475 91.7421 126.475 93.1671 124.975C105.242 112.975 111.842 96.9251 111.842 79.9001C111.842 66.9253 107.942 54.55 100.742 44.0497C112.667 54.3252 120.492 69.55 120.492 86.5001C120.492 88.5998 122.217 90.2501 124.242 90.2501C126.342 90.2501 127.992 88.5998 127.992 86.5001C127.993 55.3747 105.318 29.4251 75.7678 23.8751Z" fill="#E6B3FF"/>
<path d="M127.993 86.4998C127.993 88.5996 126.343 90.2498 124.243 90.2498C122.217 90.2498 120.493 88.5996 120.493 86.4998C120.493 69.5498 112.668 54.325 100.743 44.0494C107.943 54.5497 111.843 66.9247 111.843 79.8998C111.843 96.9251 105.243 112.975 93.1676 124.975C91.7425 126.475 89.3425 126.475 87.8423 124.975C86.4173 123.55 86.4173 121.15 87.8423 119.65C98.4921 109.075 104.342 94.8996 104.342 79.8995C104.342 78.4745 104.267 77.0495 104.117 75.6245C98.3183 110.435 66.6259 122.556 63.9922 123.875V115.7C64.1797 115.642 72.0375 112.269 79.9673 104.95C81.3923 103.599 82.8173 102.174 84.0923 100.675C82.517 101.725 80.9425 102.7 79.2922 103.6C74.4175 106.375 69.2425 108.475 63.9924 109.75V18.3243C83.1175 13.2995 104.117 17.4243 120.168 30.4744C121.818 31.8249 123.393 33.2499 124.968 34.8246C126.468 36.3246 126.468 38.6496 124.968 40.1499C123.543 41.5749 121.143 41.5749 119.718 40.1499C107.643 28.1496 91.5175 22.7498 75.7675 23.8751C105.318 29.4248 127.993 55.3744 127.993 86.4998Z" fill="#BB99FF"/>
<path d="M90.2424 3.75C90.2424 5.84975 88.5927 7.5 86.4924 7.5C78.4674 7.5 70.8172 9.14975 63.9924 12.3V4.125C71.0424 1.425 78.5424 0 86.4924 0C88.5927 0 90.2424 1.64975 90.2424 3.75Z" fill="#BB99FF"/>
<path d="M64.0074 45.25C53.6657 45.25 45.2574 53.6617 45.2574 64C45.2574 74.3382 53.6657 82.75 64.0074 82.75C74.3492 82.75 82.7574 74.3382 82.7574 64C82.7574 53.6617 74.3492 45.25 64.0074 45.25Z" fill="#BB99FF"/>
<path d="M64.0072 45.25C64.0022 45.25 63.9977 45.2513 63.9924 45.2513V82.7485C63.9974 82.7485 64.0019 82.7497 64.0072 82.7497C74.3489 82.7497 82.7572 74.338 82.7572 63.9997C82.7572 53.6615 74.3489 45.25 64.0072 45.25Z" fill="#9973E6"/>
</g>
<defs>
<clipPath id="clip0_13678_72437">
<rect width="128" height="128" fill="white"/>
</clipPath>
</defs>
</svg>
