<svg width="24" height="24" viewBox="0 0 24 24" fill="none" xmlns="http://www.w3.org/2000/svg">
<g clip-path="url(#clip0_7261_5207)">
<path d="M12 0.160156C5.456 0.160156 0.160004 5.45616 0.160004 12.0002C0.160004 18.5442 5.456 23.8402 12 23.8402C18.544 23.8402 23.84 18.5442 23.84 12.0002C23.84 5.45616 18.544 0.160156 12 0.160156ZM12 18.9282C8.176 18.9282 5.072 15.8242 5.072 12.0002C5.072 8.17616 8.176 5.07216 12 5.07216C15.824 5.07216 18.928 8.17616 18.928 12.0002C18.928 15.8242 15.824 18.9282 12 18.9282Z" fill="#2059EB"/>
<path d="M13.68 14.224H10.32C10.032 14.224 9.79199 13.984 9.79199 13.696V10.32C9.79199 10.032 10.032 9.79199 10.32 9.79199H13.696C13.984 9.79199 14.224 10.032 14.224 10.32V13.696C14.224 13.984 13.984 14.224 13.68 14.224Z" fill="#2059EB"/>
</g>
<defs>
<clipPath id="clip0_7261_5207">
<rect width="24" height="24" fill="white"/>
</clipPath>
</defs>
</svg>
