<svg viewBox="0 0 288 241.6" xmlns="http://www.w3.org/2000/svg">
	<defs></defs>
	<g id="Group_2075" data-name="Group 2075" transform="matrix(6.003961, 0, 0, 6.003961, -1950.294189, -166.943893)" opacity="0.31">
		<path id="Rectangle_134" data-name="Rectangle 134" d="M0-.5H32.184a.5.5,0,0,1,.5.5V22.441a.5.5,0,0,1-.5.5H0a.5.5,0,0,1-.5-.5V0A.5.5,0,0,1,0-.5ZM31.684.5H.5V21.941H31.684Z" transform="translate(337.454 42.439)" fill="#000102"></path>
		<path id="Path_32414" data-name="Path 32414" d="M334.508,59.038a.5.5,0,0,1-.454-.289l-6.508-14.01a.5.5,0,0,1,.243-.664l29.188-13.558a.5.5,0,0,1,.664.243l3.631,7.818a.5.5,0,0,1-.907.421l-3.421-7.364L328.664,44.771l6.3,13.557a.5.5,0,0,1-.453.711Z" fill="#000102"></path>
		<path id="Path_32415" data-name="Path 32415" d="M347.979,57.374a.5.5,0,0,1-.29-.093l-7.558-5.393L335.6,56.02l-.674-.739,4.827-4.405a.5.5,0,0,1,.627-.038l7.555,5.391,11.2-10.367a.5.5,0,0,1,.669-.009l7.967,6.964-.658.753L359.492,46.9,348.318,57.241A.5.5,0,0,1,347.979,57.374Z" transform="translate(2.188 4.596)" fill="#000102"></path>
		<path id="Path_32416" data-name="Path 32416" d="M344.372,42.231a3.962,3.962,0,1,1-3.962,3.962A3.967,3.967,0,0,1,344.372,42.231Zm0,6.925a2.962,2.962,0,1,0-2.962-2.962A2.966,2.966,0,0,0,344.372,49.156Z" transform="translate(3.888 3.542)" fill="#000102"></path>
	</g>
</svg>
