<svg width="117" height="12" viewBox="0 0 117 12" fill="none" xmlns="http://www.w3.org/2000/svg">
<path d="M2.38641 2.7452V11.8301H0V0.171387H2.36921C3.27272 0.171387 3.66472 0.632193 4.02323 1.07489L8.18587 7.02373L12.3494 1.07489C12.707 0.632193 13.099 0.171387 14.0025 0.171387H16.3717V11.8301H13.9853V2.7452L9.12378 9.42644H7.24887" fill="white"/>
<path d="M31.2099 6.00051C31.2099 2.74499 30.0131 2.30139 26.1953 2.30139C22.3767 2.30139 21.1799 2.74499 21.1799 6.00051C21.1799 9.25603 22.3767 9.69963 26.1953 9.69963C30.0131 9.69963 31.2099 9.25603 31.2099 6.00051ZM33.6986 6.00051C33.6986 10.5171 31.7513 12 26.1953 12C20.6385 12 18.6912 10.5171 18.6912 6.00051C18.6912 1.48389 20.6385 0.000976562 26.1953 0.000976562C31.7513 0.000976562 33.6986 1.48389 33.6986 6.00051Z" fill="white"/>
<path d="M38.4561 11.8301H36.0181V0.171387H37.74C40.876 0.171387 41.0507 1.17719 43.9993 5.25021C46.7778 9.08604 46.3043 9.35854 47.5663 9.35854H47.5835V0.171387H50.0206V11.8301H48.2996C45.4189 11.8301 45.2269 10.9093 42.0393 6.73403C39.0563 2.8303 39.6484 2.6429 38.4733 2.6429H38.4561" fill="white"/>
<path d="M56.9118 11.8301V2.3704H51.7949V0.171387H64.4675V2.3704H59.3498V11.8301" fill="white"/>
<path d="M74.1408 2.47151C73.3912 1.02301 73.1993 0 71.2049 0C69.2114 0 69.0022 1.02301 68.2689 2.47151L63.4961 11.8298H66.1043L70.6725 2.96672C70.9278 2.47151 71.0129 2.16552 71.2049 2.16552C71.3968 2.16552 71.4819 2.47151 71.7372 2.96672L76.3054 11.8298H78.9299" fill="white"/>
<path d="M92.3759 5.47202V11.8301H85.1704C80.9942 11.8301 79.562 9.81935 79.562 5.98352C79.562 2.1658 80.9942 0.171387 85.1704 0.171387H92.2392V2.5406H85.1704C82.392 2.5406 82.0507 3.75101 82.0507 5.98352C82.0507 8.23414 82.392 9.44364 85.1704 9.44364H89.9378V5.47202" fill="white"/>
<path d="M100.081 2.4899C97.7969 2.4899 97.1152 3.35901 96.945 4.90981H107.082V7.09163H96.945C97.1152 8.64243 97.7969 9.49524 100.081 9.49524H107.286V11.8301H100.081C95.9048 11.8301 94.4563 9.83564 94.4563 6.00072C94.4563 2.1658 95.9048 0.171387 100.081 0.171387H107.286V2.4899" fill="white"/>
<path d="M116.245 0.171387C115.992 0.171387 115.879 0.310806 115.794 0.416728L114.827 1.79824L113.857 0.414012C113.775 0.310806 113.662 0.171387 113.408 0.171387H112.771V3.13449H113.471V1.0414L114.568 2.54784H115.086L116.182 1.0414V3.13449H116.883V0.171387" fill="white"/>
<path d="M108.885 0.826836H110.134V3.13449H110.847V0.826836H112.096V0.171387H108.885" fill="white"/>
</svg>
