<svg width="24" height="24" viewBox="0 0 24 24" fill="none" xmlns="http://www.w3.org/2000/svg">
<path d="M20.6478 2.67432L13.1526 8.24117L14.5386 4.9568L20.6478 2.67432Z" fill="#5D5D5B" fill-opacity="0.5" stroke="#E2761B" stroke-linecap="round" stroke-linejoin="round"/>
<path d="M3.34464 2.67432L10.7797 8.2939L9.4614 4.9568L3.34464 2.67432Z" fill="#E4761B" stroke="#E4761B" stroke-linecap="round" stroke-linejoin="round"/>
<path d="M17.951 15.5781L15.9548 18.6365L20.226 19.8116L21.4539 15.6459L17.951 15.5781Z" fill="#E4761B" stroke="#E4761B" stroke-linecap="round" stroke-linejoin="round"/>
<path d="M2.55368 15.6459L3.77402 19.8116L8.04521 18.6365L6.04897 15.5781L2.55368 15.6459Z" fill="#E4761B" stroke="#E4761B" stroke-linecap="round" stroke-linejoin="round"/>
<path d="M7.80416 10.4105L6.61395 12.2109L10.855 12.3992L10.7043 7.8418L7.80416 10.4105Z" fill="#E4761B" stroke="#E4761B" stroke-linecap="round" stroke-linejoin="round"/>
<path d="M16.1883 10.4105L13.2505 7.78906L13.1526 12.3992L17.3861 12.2109L16.1883 10.4105Z" fill="#E4761B" stroke="#E4761B" stroke-linecap="round" stroke-linejoin="round"/>
<path d="M8.0452 18.6367L10.5913 17.3938L8.39171 15.6763L8.0452 18.6367Z" fill="#E4761B" stroke="#E4761B" stroke-linecap="round" stroke-linejoin="round"/>
<path d="M13.4011 17.3938L15.9548 18.6367L15.6007 15.6763L13.4011 17.3938Z" fill="#E4761B" stroke="#E4761B" stroke-linecap="round" stroke-linejoin="round"/>
<path d="M15.9548 18.6365L13.4011 17.3936L13.6045 19.0583L13.5819 19.7589L15.9548 18.6365Z" fill="#D7C1B3" stroke="#D7C1B3" stroke-linecap="round" stroke-linejoin="round"/>
<path d="M8.0452 18.6365L10.4181 19.7589L10.403 19.0583L10.5913 17.3936L8.0452 18.6365Z" fill="#D7C1B3" stroke="#D7C1B3" stroke-linecap="round" stroke-linejoin="round"/>
<path d="M10.4557 14.5764L8.33145 13.9511L9.83051 13.2656L10.4557 14.5764Z" fill="#233447" stroke="#233447" stroke-linecap="round" stroke-linejoin="round"/>
<path d="M13.5367 14.5764L14.1619 13.2656L15.6685 13.9511L13.5367 14.5764Z" fill="#233447" stroke="#233447" stroke-linecap="round" stroke-linejoin="round"/>
<path d="M8.04518 18.6365L8.40676 15.5781L6.04895 15.6459L8.04518 18.6365Z" fill="#CD6116" stroke="#CD6116" stroke-linecap="round" stroke-linejoin="round"/>
<path d="M15.5932 15.5781L15.9548 18.6365L17.951 15.6459L15.5932 15.5781Z" fill="#CD6116" stroke="#CD6116" stroke-linecap="round" stroke-linejoin="round"/>
<path d="M17.386 12.2109L13.1525 12.3993L13.5442 14.5763L14.1695 13.2656L15.6761 13.951L17.386 12.2109Z" fill="#CD6116" stroke="#CD6116" stroke-linecap="round" stroke-linejoin="round"/>
<path d="M8.33144 13.951L9.83803 13.2656L10.4557 14.5763L10.855 12.3993L6.61392 12.2109L8.33144 13.951Z" fill="#CD6116" stroke="#CD6116" stroke-linecap="round" stroke-linejoin="round"/>
<path d="M6.61392 12.2109L8.3917 15.6761L8.33144 13.951L6.61392 12.2109Z" fill="#E4751F" stroke="#E4751F" stroke-linecap="round" stroke-linejoin="round"/>
<path d="M15.6761 13.951L15.6007 15.6761L17.386 12.2109L15.6761 13.951Z" fill="#E4751F" stroke="#E4751F" stroke-linecap="round" stroke-linejoin="round"/>
<path d="M10.855 12.3994L10.4557 14.5764L10.9529 17.1452L11.0659 13.7629L10.855 12.3994Z" fill="#E4751F" stroke="#E4751F" stroke-linecap="round" stroke-linejoin="round"/>
<path d="M13.1525 12.3994L12.9491 13.7553L13.0395 17.1452L13.5442 14.5764L13.1525 12.3994Z" fill="#E4751F" stroke="#E4751F" stroke-linecap="round" stroke-linejoin="round"/>
<path d="M13.5443 14.5764L13.0396 17.1451L13.4011 17.3937L15.6008 15.6762L15.6761 13.9512L13.5443 14.5764Z" fill="#F6851B" stroke="#F6851B" stroke-linecap="round" stroke-linejoin="round"/>
<path d="M8.33145 13.9512L8.39172 15.6762L10.5913 17.3937L10.9529 17.1451L10.4557 14.5764L8.33145 13.9512Z" fill="#F6851B" stroke="#F6851B" stroke-linecap="round" stroke-linejoin="round"/>
<path d="M13.5819 19.7591L13.6045 19.0586L13.4162 18.8928H10.5763L10.403 19.0586L10.4181 19.7591L8.0452 18.6367L8.87382 19.3147L10.5537 20.4823H13.4388L15.1262 19.3147L15.9548 18.6367L13.5819 19.7591Z" fill="#C0AD9E" stroke="#C0AD9E" stroke-linecap="round" stroke-linejoin="round"/>
<path d="M13.4011 17.3936L13.0395 17.145H10.9529L10.5913 17.3936L10.403 19.0584L10.5763 18.8927H13.4162L13.6045 19.0584L13.4011 17.3936Z" fill="#161616" stroke="#161616" stroke-linecap="round" stroke-linejoin="round"/>
<path d="M20.9642 8.60275L21.6045 5.52931L20.6478 2.67432L13.4011 8.05285L16.1883 10.4107L20.1281 11.5632L21.0019 10.5463L20.6252 10.2751L21.2279 9.72516L20.7608 9.36358L21.3635 8.90407L20.9642 8.60275Z" fill="#763D16" stroke="#763D16" stroke-linecap="round" stroke-linejoin="round"/>
<path d="M2.39548 5.52931L3.03578 8.60275L2.629 8.90407L3.23164 9.36358L2.77213 9.72516L3.37476 10.2751L2.99811 10.5463L3.8644 11.5632L7.80414 10.4107L10.5913 8.05285L3.34463 2.67432L2.39548 5.52931Z" fill="#763D16" stroke="#763D16" stroke-linecap="round" stroke-linejoin="round"/>
<path d="M20.1281 11.5632L16.1883 10.4106L17.3861 12.211L15.6008 15.6762L17.9511 15.646H21.4539L20.1281 11.5632Z" fill="#F6851B" stroke="#F6851B" stroke-linecap="round" stroke-linejoin="round"/>
<path d="M7.80415 10.4106L3.86441 11.5632L2.55368 15.646H6.04897L8.39172 15.6762L6.61394 12.211L7.80415 10.4106Z" fill="#F6851B" stroke="#F6851B" stroke-linecap="round" stroke-linejoin="round"/>
<path d="M13.1525 12.3991L13.4011 8.05259L14.5461 4.95654H9.4614L10.5913 8.05259L10.855 12.3991L10.9454 13.7701L10.9529 17.1449H13.0396L13.0546 13.7701L13.1525 12.3991Z" fill="#F6851B" stroke="#F6851B" stroke-linecap="round" stroke-linejoin="round"/>
</svg>
