<svg width="128" height="128" viewBox="0 0 128 128" fill="none" xmlns="http://www.w3.org/2000/svg">
<g clip-path="url(#clip0_13678_72243)">
<path d="M54.4985 34.0156L93.9884 73.5055L66.6596 100.835C68.8604 101.073 70.9984 102.033 72.6867 103.721C76.7835 107.818 76.6082 114.571 72.159 118.441C68.4164 121.696 62.7571 121.704 59.0071 118.46C56.9778 116.705 55.8343 114.354 55.5713 111.923L41.3697 126.125L29.2563 114.011C28.4083 113.163 28.7055 111.727 29.8203 111.279C31.0418 110.789 32.1871 110.048 33.1758 109.059C37.1069 105.128 37.1051 98.7575 33.1758 94.8285C29.2465 90.8992 22.8765 90.8974 18.9454 94.8285C17.9564 95.8175 17.2152 96.9627 16.7254 98.184C16.2777 99.2988 14.8409 99.596 13.9929 98.748L1.87952 86.6346L16.0814 72.4328C13.8786 72.1965 11.7426 71.2342 10.0543 69.546C5.95756 65.4492 6.13281 58.6959 10.5821 54.8258C14.3246 51.5713 19.9839 51.5635 23.734 54.8068C25.7635 56.5618 26.9068 58.9131 27.1695 61.3446L54.4985 34.0156Z" fill="#FF5F5F"/>
<path d="M54.4985 34.0156L93.9884 73.5055L83.7768 83.7171L73.87 73.8103C73.4297 74.422 72.9402 74.9993 72.4027 75.5368C69.6474 78.2921 65.8324 79.7976 61.9376 79.6603C57.9856 79.5231 54.3745 77.7986 51.7718 74.8033C47.2062 69.5517 47.1947 61.6209 51.747 56.3558C51.9718 56.0928 52.212 55.8376 52.4578 55.5918C52.995 55.0546 53.5725 54.5648 54.1843 54.1246L44.2869 44.2272L54.4985 34.0156Z" fill="#F44D4D"/>
<path d="M118.45 58.9941C116.702 56.9663 114.358 55.8208 111.935 55.5503L126.121 41.3646L111.921 27.165C114.351 26.902 116.704 25.7587 118.458 23.7295C121.702 19.9782 121.694 14.3199 118.44 10.5776C114.57 6.12679 107.816 5.95079 103.718 10.0491C102.031 11.7363 101.07 13.8741 100.832 16.0754L86.6309 1.875L74.5178 13.9881C73.669 14.8369 73.967 16.2724 75.0808 16.7199C76.3028 17.2109 77.4478 17.9514 78.437 18.9407C82.3681 22.8717 82.3661 29.242 78.437 33.1711C74.508 37.1001 68.1377 37.1021 64.2067 33.1711C63.2174 32.1818 62.4769 31.0368 61.9859 29.8148C61.5381 28.701 60.1029 28.4028 59.2541 29.2518L47.141 41.3649L61.3414 55.5653C58.9116 55.8283 56.5588 56.9715 54.8041 59.0011C51.5605 62.7523 51.5685 68.4109 54.8226 72.1529C58.6926 76.6035 65.4467 76.7795 69.545 72.6812C71.2322 70.9939 72.193 68.8562 72.431 66.6549L86.6306 80.8545L100.816 66.6689C101.061 68.8584 102.02 70.9832 103.699 72.6619C107.797 76.7605 114.551 76.5842 118.421 72.1332C121.671 68.3957 121.683 62.7458 118.45 58.9941Z" fill="#42C6F4"/>
<path d="M70.2777 99.87L74.884 95.2637C75.6162 94.5312 75.6162 93.3442 74.884 92.6119C74.1517 91.8799 72.9645 91.8799 72.2325 92.6119L65.3344 99.5102C64.8239 100.021 64.6519 100.779 64.8916 101.46C65.1316 102.14 65.7409 102.623 66.4587 102.7C68.3322 102.903 70.0272 103.715 71.3607 105.048C72.9837 106.671 73.8337 108.829 73.7535 111.125C73.6737 113.418 72.6702 115.515 70.928 117.03C67.8829 119.677 63.2849 119.684 60.2326 117.045C58.6516 115.678 57.6581 113.789 57.4346 111.725C57.3568 111.007 56.8743 110.398 56.1936 110.158C55.5131 109.918 54.755 110.09 54.2445 110.6L41.3699 123.475L30.7996 112.905C32.1826 112.308 33.4268 111.462 34.5021 110.387C39.1566 105.733 39.1566 98.1592 34.5021 93.5047C32.2476 91.2499 29.25 90.0084 26.062 90.0081C26.062 90.0081 26.0615 90.0081 26.061 90.0081C22.8727 90.0081 19.875 91.2499 17.6202 93.5047C16.5449 94.5802 15.6987 95.8245 15.1022 97.2075L4.53155 86.6364L17.4064 73.7617C17.9169 73.2512 18.0889 72.4932 17.8492 71.8125C17.6092 71.1317 16.9999 70.6492 16.2822 70.5717C14.4087 70.369 12.7136 69.5569 11.3801 68.2237C9.7571 66.6007 8.9071 64.4426 8.9871 62.1471C9.0671 59.8541 10.0706 57.7566 11.8131 56.2416C14.8577 53.5943 19.4554 53.5878 22.5082 56.2273C24.089 57.5941 25.0825 59.4833 25.306 61.5476C25.3838 62.2651 25.8663 62.8744 26.547 63.1141C27.2275 63.3541 27.9858 63.1819 28.496 62.6716L34.7271 56.4406C35.4594 55.7081 35.4594 54.521 34.7271 53.7888C33.9948 53.0568 32.8076 53.0568 32.0756 53.7888L28.139 57.7253C27.4313 56.0758 26.3525 54.5936 24.9613 53.3905C20.5067 49.5388 13.7964 49.548 9.3526 53.4118C6.81683 55.6166 5.35606 58.6726 5.23956 62.0164C5.12456 65.3139 6.39632 68.5429 8.72859 70.8755C9.80486 71.9515 11.0774 72.807 12.4631 73.4015L0.554015 85.3103C-0.178243 86.0429 -0.178243 87.2299 0.554015 87.9621L12.6671 100.075C13.5114 100.919 14.7132 101.28 15.8817 101.041C17.0527 100.802 18.0184 99.9957 18.4647 98.885C18.8759 97.8617 19.4837 96.9432 20.2715 96.1557C21.8182 94.6087 23.874 93.7572 26.0608 93.7572H26.0613C28.248 93.7574 30.3038 94.6089 31.8501 96.1557C35.0424 99.348 35.0424 104.542 31.8501 107.734C31.0626 108.522 30.1441 109.13 29.1203 109.541C28.0098 109.988 27.2035 110.954 26.9643 112.125C26.7253 113.293 27.0868 114.495 27.9308 115.339L40.0439 127.452C40.4099 127.818 40.8899 128.001 41.3697 128.001C41.8494 128.001 42.3294 127.818 42.6954 127.452L54.6013 115.546C55.309 117.196 56.3881 118.678 57.7796 119.881C62.2341 123.732 68.9447 123.723 73.3882 119.859C75.9237 117.654 77.3843 114.598 77.501 111.255C77.6158 107.957 76.3443 104.728 74.012 102.396C72.936 101.32 71.6635 100.465 70.2777 99.87Z" fill="black"/>
<path d="M57.9281 27.9258C58.7719 27.082 59.9729 26.7203 61.1421 26.9595C62.3134 27.1988 63.2792 28.005 63.7254 29.1155C64.1369 30.139 64.7447 31.0576 65.5324 31.8451C67.0794 33.3921 69.1355 34.2438 71.3222 34.2436C73.5088 34.2436 75.5645 33.3918 77.111 31.8451C80.3033 28.6528 80.3033 23.4587 77.111 20.2667C76.3235 19.4792 75.405 18.8712 74.3813 18.4594C73.271 18.0134 72.4647 17.0479 72.2252 15.8764C71.9862 14.7076 72.3475 13.5061 73.1915 12.6621L85.3046 0.549005C86.0369 -0.183002 87.2241 -0.183002 87.9561 0.549005L99.865 12.4579C100.46 11.0719 101.315 9.7996 102.391 8.72334C104.724 6.39106 107.952 5.1153 111.25 5.2343C114.594 5.3508 117.65 6.81157 119.854 9.34734C123.718 13.7906 123.727 20.5009 119.876 24.956C118.673 26.3473 117.19 27.4263 115.541 28.134L127.446 40.0389C128.178 40.7714 128.178 41.9584 127.446 42.6904L125.174 44.9624C124.442 45.695 123.255 45.6947 122.523 44.9627C121.79 44.2304 121.79 43.0432 122.523 42.3112L123.469 41.3649L110.595 28.4913C110.084 27.9808 109.912 27.223 110.152 26.5423C110.392 25.8613 111.001 25.379 111.719 25.3012C113.783 25.0777 115.672 24.0842 117.039 22.5035C119.678 19.4509 119.672 14.8529 117.025 11.8081C115.51 10.0658 113.412 9.06234 111.119 8.98234C108.821 8.90309 106.666 9.7521 105.043 11.3751C103.709 12.7084 102.898 14.4034 102.695 16.2772C102.617 16.9947 102.135 17.6042 101.454 17.8439C100.773 18.0834 100.015 17.9117 99.5048 17.4014L86.6309 4.52629L76.0605 15.0966C77.4438 15.6937 78.6881 16.5397 79.7631 17.6144C84.4174 22.2687 84.4176 29.842 79.7631 34.4963C77.5083 36.7514 74.511 37.9929 71.323 37.9931C71.323 37.9931 71.3222 37.9931 71.3217 37.9931C68.1337 37.9934 65.1359 36.7514 62.8811 34.4963C61.8059 33.4213 60.9599 32.1771 60.3631 30.7941L49.7928 41.3642L62.6674 54.2388C63.1779 54.7493 63.3499 55.507 63.1101 56.188C62.8704 56.8688 62.2611 57.3511 61.5434 57.4288C59.4791 57.6523 57.5896 58.6458 56.2228 60.2268C53.5836 63.2794 53.5901 67.8774 56.2376 70.9217C57.7528 72.6642 59.8499 73.6677 62.1431 73.7477C64.4369 73.826 66.5964 72.978 68.2194 71.3549C69.5527 70.0217 70.3645 68.3267 70.5672 66.4529C70.645 65.7354 71.1275 65.1259 71.8082 64.8861C72.489 64.6459 73.2467 64.8184 73.7573 65.3286L86.6311 78.2028L99.4908 65.3429C100.001 64.8331 100.757 64.6609 101.437 64.8994C102.117 65.1379 102.6 65.7449 102.68 66.4609C102.888 68.3244 103.699 70.0102 105.025 71.3364C106.648 72.9592 108.805 73.8105 111.101 73.7292C113.394 73.6492 115.492 72.6455 117.007 70.9029C119.65 67.8629 119.66 63.2694 117.03 60.2178C115.669 58.6391 113.786 57.6431 111.728 57.4136C111.011 57.3336 110.405 56.8503 110.166 56.1703C109.928 55.49 110.1 54.7338 110.61 54.224L116.65 48.1832C117.383 47.4512 118.57 47.4512 119.302 48.1832C120.034 48.9157 120.034 50.1027 119.302 50.835L115.548 54.5888C117.194 55.299 118.671 56.3791 119.87 57.7696C123.708 62.2229 123.694 68.9267 119.836 73.3635C117.631 75.8995 114.576 77.3603 111.232 77.4768C107.933 77.5948 104.705 76.3202 102.373 73.988C101.304 72.919 100.452 71.6552 99.8578 70.2789L95.415 74.722C95.3825 74.76 95.3497 74.7977 95.314 74.8337L80.6163 89.5314C80.2503 89.8974 79.7703 90.0804 79.2906 90.0804C78.8108 90.0804 78.3308 89.8974 77.9648 89.5314C77.2325 88.7989 77.2325 87.6119 77.9648 86.8796L83.9846 80.8598L73.3972 70.2724C72.8025 71.6585 71.9472 72.9307 70.871 74.007C68.5387 76.339 65.3084 77.6045 62.0124 77.496C58.6686 77.3795 55.6128 75.9187 53.4078 73.383C49.5438 68.9399 49.5343 62.2296 53.3861 57.7746C54.5891 56.3833 56.0716 55.304 57.7213 54.5963L47.1462 44.0212L40.6087 50.5585C40.2427 50.9245 39.7627 51.1075 39.2829 51.1075C38.8032 51.1075 38.3232 50.9245 37.9572 50.5582C37.2249 49.826 37.2249 48.639 37.9572 47.9067L57.9281 27.9258Z" fill="black"/>
</g>
<defs>
<clipPath id="clip0_13678_72243">
<rect width="128" height="128" fill="white"/>
</clipPath>
</defs>
</svg>
