<svg width="24" height="24" viewBox="0 0 24 24" fill="none" xmlns="http://www.w3.org/2000/svg">
<path fill-rule="evenodd" clip-rule="evenodd" d="M12 0C18.6281 0 24 5.37188 24 12C24 18.6281 18.6281 24 12 24C5.37188 24 0 18.6281 0 12C0 5.37188 5.37188 0 12 0Z" fill="#2059EB"/>
<path d="M7.62656 9.26738C10.0406 6.90957 13.9594 6.90957 16.3734 9.26738L16.6641 9.55332C16.7859 9.67051 16.7859 9.8627 16.6641 9.97988L15.6703 10.9502C15.6094 11.0111 15.5109 11.0111 15.45 10.9502L15.0516 10.5611C13.3641 8.91582 10.6359 8.91582 8.94843 10.5611L8.52187 10.9783C8.46093 11.0393 8.36249 11.0393 8.30156 10.9783L7.30781 10.008C7.18593 9.89082 7.18593 9.69863 7.30781 9.58145L7.62656 9.26738ZM18.4312 11.2736L19.3172 12.1361C19.4391 12.2533 19.4391 12.4455 19.3172 12.5627L15.3281 16.458C15.2062 16.5752 15.0094 16.5752 14.8922 16.458L12.0609 13.6924C12.0328 13.6643 11.9812 13.6643 11.9531 13.6924L9.12187 16.458C8.99999 16.5752 8.80312 16.5752 8.68593 16.458L4.68281 12.5627C4.56093 12.4455 4.56093 12.2533 4.68281 12.1361L5.56874 11.2736C5.69062 11.1564 5.88749 11.1564 6.00468 11.2736L8.83593 14.0393C8.86406 14.0674 8.91562 14.0674 8.94374 14.0393L11.775 11.2736C11.8969 11.1564 12.0937 11.1564 12.2109 11.2736L15.0422 14.0393C15.0703 14.0674 15.1219 14.0674 15.15 14.0393L17.9812 11.2736C18.1125 11.1564 18.3094 11.1564 18.4312 11.2736Z" fill="white"/>
</svg>
