<svg width="128" height="128" viewBox="0 0 128 128" fill="none" xmlns="http://www.w3.org/2000/svg">
<path d="M64 112.104C90.5686 112.104 112.107 90.5659 112.107 63.9973C112.107 37.4287 90.5686 15.8906 64 15.8906C37.4314 15.8906 15.8933 37.4287 15.8933 63.9973C15.8933 90.5659 37.4314 112.104 64 112.104Z" fill="white"/>
<path d="M68.8 107.094C78.1867 106.028 86.6134 102.081 93.2267 96.0009C90.1334 93.2276 86.72 90.8809 82.88 88.9609C79.4667 96.0009 74.6667 102.081 68.8 107.094Z" fill="#68EAA2"/>
<path d="M78.9333 87.3569C74.88 85.8635 70.6133 85.0102 66.1333 84.7969V103.784C71.4666 99.1969 75.84 93.6502 78.9333 87.3569Z" fill="#68EAA2"/>
<path d="M84.3733 66.1328H66.1333V80.4261C71.2533 80.6395 76.16 81.7061 80.64 83.4128C82.88 78.0795 84.16 72.2128 84.3733 66.1328Z" fill="#68EAA2"/>
<path d="M84.5867 85.1195C88.8533 87.1462 92.6933 89.8128 96.2133 93.0128C102.72 85.8661 106.773 76.4795 107.307 66.1328H88.64C88.4267 72.8528 87.04 79.2528 84.5867 85.1195Z" fill="#68EAA2"/>
<path d="M88.64 61.8644H107.307C106.773 51.5177 102.72 42.2377 96.2133 34.9844C92.8 38.1844 88.8533 40.851 84.5867 42.8777C87.04 48.851 88.4267 55.251 88.64 61.8644Z" fill="#68EAA2"/>
<path d="M82.88 39.0396C86.6134 37.2262 90.1334 34.7729 93.2267 31.9996C86.6134 25.9196 78.1867 21.9729 68.8 20.9062C74.6667 25.9196 79.4667 32.1062 82.88 39.0396Z" fill="#68EAA2"/>
<path d="M80.64 44.5859C76.0533 46.2926 71.1466 47.3593 66.1333 47.5726V61.8659H84.3733C84.16 55.7859 82.88 50.0259 80.64 44.5859Z" fill="#68EAA2"/>
<path d="M66.1333 24.3203V43.307C70.6133 43.0936 74.88 42.2403 78.9333 40.747C75.84 34.4536 71.4666 28.8003 66.1333 24.3203Z" fill="#68EAA2"/>
<path d="M49.0667 40.747C53.12 42.2403 57.3867 43.0936 61.8667 43.307V24.3203C56.5333 28.8003 52.16 34.4536 49.0667 40.747Z" fill="#68EAA2"/>
<path d="M59.2 21.0156C49.8133 22.0823 41.3866 26.029 34.7733 32.109C37.8666 34.8823 41.28 37.229 45.12 39.149C48.5333 32.109 53.3333 25.9223 59.2 21.0156Z" fill="#68EAA2"/>
<path d="M43.6267 61.8659H61.8667V47.5726C56.7467 47.3593 51.84 46.2926 47.2534 44.5859C45.12 50.0259 43.84 55.7859 43.6267 61.8659Z" fill="#68EAA2"/>
<path d="M47.36 83.4128C51.9467 81.7061 56.8534 80.6395 61.9734 80.4261V66.1328H43.6267C43.84 72.2128 45.12 78.0795 47.36 83.4128Z" fill="#68EAA2"/>
<path d="M61.8667 103.784V84.7969C57.3867 85.0102 53.12 85.8635 49.0667 87.3569C52.16 93.6502 56.5333 99.1969 61.8667 103.784Z" fill="#68EAA2"/>
<path d="M45.12 89.0625C41.3867 90.8758 37.8666 93.3292 34.7733 96.1025C41.3866 102.182 49.8133 106.129 59.2 107.196C53.3333 102.076 48.5333 95.9958 45.12 89.0625Z" fill="#68EAA2"/>
<path d="M39.36 66.1328H20.6934C21.2267 76.4795 25.28 85.7595 31.7867 93.0128C35.2 89.8128 39.1467 87.1462 43.4134 85.1195C40.96 79.2528 39.5734 72.8528 39.36 66.1328Z" fill="#68EAA2"/>
<path d="M43.4134 42.9871C39.1467 40.9604 35.2 38.2938 31.7867 35.0938C25.28 42.2404 21.2267 51.6271 20.6934 61.9737H39.36C39.5734 55.2537 40.96 48.8537 43.4134 42.9871Z" fill="#68EAA2"/>
<path d="M88.1067 97.2729C91.9358 97.2729 95.04 94.1688 95.04 90.3396C95.04 86.5104 91.9358 83.4062 88.1067 83.4062C84.2775 83.4062 81.1733 86.5104 81.1733 90.3396C81.1733 94.1688 84.2775 97.2729 88.1067 97.2729Z" fill="#D90049"/>
<path d="M125.44 88.5278H117.973C117.12 73.5945 105.067 61.5411 89.92 60.4745V53.0078H86.1866V60.4745C71.2533 61.3278 59.2 73.3811 58.1333 88.5278H50.6666V92.2611H58.1333C58.9866 107.194 71.04 119.248 86.1866 120.314V127.781H89.92V120.314C104.853 119.461 116.907 107.408 117.973 92.2611H125.44V88.5278ZM90.0266 116.474V110.608H86.2933V116.474C73.28 115.621 62.9333 105.168 61.9733 92.2611H67.84V88.5278H61.9733C62.9333 75.5145 73.28 65.1678 86.2933 64.2078V70.0745H90.0266V64.2078C102.933 65.0611 113.28 75.5145 114.24 88.4212H108.373V92.1545H114.24C113.28 105.168 102.933 115.514 90.0266 116.474Z" fill="#467AFF"/>
</svg>
