<svg width="512" height="512" viewBox="0 0 512 512" fill="none" xmlns="http://www.w3.org/2000/svg">
<circle cx="256" cy="256" r="256" fill="black"/>
<path d="M45.0285 226.4V231.818H37.7925V226.4H35.9925V239H37.7925V233.384H45.0285V239H46.8285V226.4H45.0285ZM54.434 239.108C57.296 239.108 59.384 237.074 59.384 234.23C59.384 231.386 57.296 229.37 54.434 229.37C51.572 229.37 49.466 231.386 49.466 234.23C49.466 237.074 51.572 239.108 54.434 239.108ZM54.434 237.596C52.598 237.596 51.212 236.264 51.212 234.23C51.212 232.196 52.598 230.882 54.434 230.882C56.27 230.882 57.638 232.196 57.638 234.23C57.638 236.264 56.27 237.596 54.434 237.596ZM61.7737 239H63.5017V225.644H61.7737V239ZM74.0731 225.644V230.9C73.2811 229.874 72.0931 229.37 70.7431 229.37C67.9531 229.37 65.9191 231.314 65.9191 234.23C65.9191 237.146 67.9531 239.108 70.7431 239.108C72.1471 239.108 73.3711 238.568 74.1451 237.488V239H75.8011V225.644H74.0731ZM70.8871 237.596C69.0511 237.596 67.6651 236.264 67.6651 234.23C67.6651 232.196 69.0511 230.882 70.8871 230.882C72.7051 230.882 74.0911 232.196 74.0911 234.23C74.0911 236.264 72.7051 237.596 70.8871 237.596ZM87.6926 234.284C87.6926 231.35 85.7306 229.37 82.9766 229.37C80.2226 229.37 78.1886 231.404 78.1886 234.23C78.1886 237.074 80.2406 239.108 83.3186 239.108C84.9026 239.108 86.2166 238.568 87.0806 237.56L86.1266 236.444C85.4246 237.218 84.4886 237.596 83.3726 237.596C81.4826 237.596 80.1326 236.48 79.9166 234.806H87.6566C87.6746 234.644 87.6926 234.428 87.6926 234.284ZM82.9766 230.828C84.6506 230.828 85.8566 231.962 86.0366 233.564H79.9166C80.0966 231.944 81.3206 230.828 82.9766 230.828ZM91.7481 231.062V229.46H90.0921V239H91.8201V234.248C91.8201 232.16 92.9721 231.026 94.8261 231.026C94.9521 231.026 95.0781 231.026 95.2221 231.044V229.37C93.5481 229.37 92.3601 229.946 91.7481 231.062ZM100.158 239.108C102.696 239.108 104.28 238.01 104.28 236.282C104.28 232.574 98.2322 234.41 98.2322 232.16C98.2322 231.404 98.9702 230.846 100.482 230.846C101.418 230.846 102.372 231.044 103.236 231.602L103.974 230.234C103.146 229.694 101.742 229.37 100.5 229.37C98.0522 229.37 96.5222 230.522 96.5222 232.232C96.5222 236.03 102.552 234.176 102.552 236.318C102.552 237.128 101.886 237.614 100.284 237.614C99.0422 237.614 97.7462 237.2 96.9362 236.624L96.2162 237.992C97.0082 238.622 98.5742 239.108 100.158 239.108ZM114.748 229.37C113.218 229.37 111.796 229.802 110.806 230.594L111.526 231.89C112.264 231.26 113.416 230.864 114.55 230.864C116.26 230.864 117.106 231.71 117.106 233.168V233.51H114.37C111.526 233.51 110.536 234.77 110.536 236.3C110.536 237.956 111.904 239.108 114.064 239.108C115.558 239.108 116.62 238.604 117.196 237.74V239H118.834V233.24C118.834 230.63 117.358 229.37 114.748 229.37ZM114.352 237.776C113.038 237.776 112.246 237.182 112.246 236.228C112.246 235.418 112.732 234.752 114.442 234.752H117.106V236.084C116.674 237.182 115.648 237.776 114.352 237.776ZM123.688 231.062V229.46H122.032V239H123.76V234.248C123.76 232.16 124.912 231.026 126.766 231.026C126.892 231.026 127.018 231.026 127.162 231.044V229.37C125.488 229.37 124.3 229.946 123.688 231.062ZM137.825 234.284C137.825 231.35 135.863 229.37 133.109 229.37C130.355 229.37 128.321 231.404 128.321 234.23C128.321 237.074 130.373 239.108 133.451 239.108C135.035 239.108 136.349 238.568 137.213 237.56L136.259 236.444C135.557 237.218 134.621 237.596 133.505 237.596C131.615 237.596 130.265 236.48 130.049 234.806H137.789C137.807 234.644 137.825 234.428 137.825 234.284ZM133.109 230.828C134.783 230.828 135.989 231.962 136.169 233.564H130.049C130.229 231.944 131.453 230.828 133.109 230.828ZM156.993 229.37C155.373 229.37 154.041 230.054 153.321 231.134C152.691 229.946 151.467 229.37 150.009 229.37C148.569 229.37 147.399 229.91 146.715 230.882V229.46H145.059V239H146.787V234.086C146.787 232.016 147.921 230.918 149.649 230.918C151.215 230.918 152.115 231.836 152.115 233.708V239H153.843V234.086C153.843 232.016 154.977 230.918 156.705 230.918C158.271 230.918 159.171 231.836 159.171 233.708V239H160.899V233.51C160.899 230.702 159.315 229.37 156.993 229.37ZM168.217 239.108C171.079 239.108 173.167 237.074 173.167 234.23C173.167 231.386 171.079 229.37 168.217 229.37C165.355 229.37 163.249 231.386 163.249 234.23C163.249 237.074 165.355 239.108 168.217 239.108ZM168.217 237.596C166.381 237.596 164.995 236.264 164.995 234.23C164.995 232.196 166.381 230.882 168.217 230.882C170.053 230.882 171.421 232.196 171.421 234.23C171.421 236.264 170.053 237.596 168.217 237.596ZM177.213 231.062V229.46H175.557V239H177.285V234.248C177.285 232.16 178.437 231.026 180.291 231.026C180.417 231.026 180.543 231.026 180.687 231.044V229.37C179.013 229.37 177.825 229.946 177.213 231.062ZM191.351 234.284C191.351 231.35 189.389 229.37 186.635 229.37C183.881 229.37 181.847 231.404 181.847 234.23C181.847 237.074 183.899 239.108 186.977 239.108C188.561 239.108 189.875 238.568 190.739 237.56L189.785 236.444C189.083 237.218 188.147 237.596 187.031 237.596C185.141 237.596 183.791 236.48 183.575 234.806H191.315C191.333 234.644 191.351 234.428 191.351 234.284ZM186.635 230.828C188.309 230.828 189.515 231.962 189.695 233.564H183.575C183.755 231.944 184.979 230.828 186.635 230.828ZM203.408 237.2C203.048 237.488 202.562 237.65 202.058 237.65C201.104 237.65 200.564 237.074 200.564 236.048V230.882H203.3V229.46H200.564V227.372H198.836V229.46H197.216V230.882H198.836V236.12C198.836 238.046 199.934 239.108 201.86 239.108C202.634 239.108 203.426 238.892 203.948 238.442L203.408 237.2ZM211.131 229.37C209.673 229.37 208.485 229.892 207.765 230.81V225.644H206.037V239H207.765V234.086C207.765 232.016 208.953 230.918 210.789 230.918C212.427 230.918 213.363 231.836 213.363 233.708V239H215.091V233.51C215.091 230.702 213.453 229.37 211.131 229.37ZM221.763 229.37C220.233 229.37 218.811 229.802 217.821 230.594L218.541 231.89C219.279 231.26 220.431 230.864 221.565 230.864C223.275 230.864 224.121 231.71 224.121 233.168V233.51H221.385C218.541 233.51 217.551 234.77 217.551 236.3C217.551 237.956 218.919 239.108 221.079 239.108C222.573 239.108 223.635 238.604 224.211 237.74V239H225.849V233.24C225.849 230.63 224.373 229.37 221.763 229.37ZM221.367 237.776C220.053 237.776 219.261 237.182 219.261 236.228C219.261 235.418 219.747 234.752 221.457 234.752H224.121V236.084C223.689 237.182 222.663 237.776 221.367 237.776ZM234.141 229.37C232.629 229.37 231.405 229.928 230.703 230.9V229.46H229.047V239H230.775V234.086C230.775 232.016 231.963 230.918 233.799 230.918C235.437 230.918 236.373 231.836 236.373 233.708V239H238.101V233.51C238.101 230.702 236.463 229.37 234.141 229.37ZM250.291 239.108C252.001 239.108 253.423 238.388 254.179 237.056L252.865 236.228C252.253 237.164 251.317 237.596 250.273 237.596C248.401 237.596 246.997 236.3 246.997 234.23C246.997 232.196 248.401 230.882 250.273 230.882C251.317 230.882 252.253 231.314 252.865 232.25L254.179 231.404C253.423 230.072 252.001 229.37 250.291 229.37C247.357 229.37 245.251 231.386 245.251 234.23C245.251 237.074 247.357 239.108 250.291 239.108ZM256.293 239H258.021V225.644H256.293V239ZM262.185 227.624C262.869 227.624 263.355 227.12 263.355 226.472C263.355 225.86 262.851 225.374 262.185 225.374C261.519 225.374 261.015 225.878 261.015 226.508C261.015 227.138 261.519 227.624 262.185 227.624ZM261.321 239H263.049V229.46H261.321V239ZM274.97 234.284C274.97 231.35 273.008 229.37 270.254 229.37C267.5 229.37 265.466 231.404 265.466 234.23C265.466 237.074 267.518 239.108 270.596 239.108C272.18 239.108 273.494 238.568 274.358 237.56L273.404 236.444C272.702 237.218 271.766 237.596 270.65 237.596C268.76 237.596 267.41 236.48 267.194 234.806H274.934C274.952 234.644 274.97 234.428 274.97 234.284ZM270.254 230.828C271.928 230.828 273.134 231.962 273.314 233.564H267.194C267.374 231.944 268.598 230.828 270.254 230.828ZM282.463 229.37C280.951 229.37 279.727 229.928 279.025 230.9V229.46H277.369V239H279.097V234.086C279.097 232.016 280.285 230.918 282.121 230.918C283.759 230.918 284.695 231.836 284.695 233.708V239H286.423V233.51C286.423 230.702 284.785 229.37 282.463 229.37ZM294.445 237.2C294.085 237.488 293.599 237.65 293.095 237.65C292.141 237.65 291.601 237.074 291.601 236.048V230.882H294.337V229.46H291.601V227.372H289.873V229.46H288.253V230.882H289.873V236.12C289.873 238.046 290.971 239.108 292.897 239.108C293.671 239.108 294.463 238.892 294.985 238.442L294.445 237.2ZM299.811 239.108C302.349 239.108 303.933 238.01 303.933 236.282C303.933 232.574 297.885 234.41 297.885 232.16C297.885 231.404 298.623 230.846 300.135 230.846C301.071 230.846 302.025 231.044 302.889 231.602L303.627 230.234C302.799 229.694 301.395 229.37 300.153 229.37C297.705 229.37 296.175 230.522 296.175 232.232C296.175 236.03 302.205 234.176 302.205 236.318C302.205 237.128 301.539 237.614 299.937 237.614C298.695 237.614 297.399 237.2 296.589 236.624L295.869 237.992C296.661 238.622 298.227 239.108 299.811 239.108ZM315.012 239.108C317.874 239.108 319.962 237.074 319.962 234.23C319.962 231.386 317.874 229.37 315.012 229.37C312.15 229.37 310.044 231.386 310.044 234.23C310.044 237.074 312.15 239.108 315.012 239.108ZM315.012 237.596C313.176 237.596 311.79 236.264 311.79 234.23C311.79 232.196 313.176 230.882 315.012 230.882C316.848 230.882 318.216 232.196 318.216 234.23C318.216 236.264 316.848 237.596 315.012 237.596ZM324.008 231.062V229.46H322.352V239H324.08V234.248C324.08 232.16 325.232 231.026 327.086 231.026C327.212 231.026 327.338 231.026 327.482 231.044V229.37C325.808 229.37 324.62 229.946 324.008 231.062ZM339.627 229.37C338.277 229.37 337.089 229.874 336.297 230.9V225.644H334.569V239H336.225V237.488C336.999 238.568 338.223 239.108 339.627 239.108C342.417 239.108 344.451 237.146 344.451 234.23C344.451 231.314 342.417 229.37 339.627 229.37ZM339.483 237.596C337.665 237.596 336.279 236.264 336.279 234.23C336.279 232.196 337.665 230.882 339.483 230.882C341.319 230.882 342.705 232.196 342.705 234.23C342.705 236.264 341.319 237.596 339.483 237.596ZM354.002 229.46V234.392C354.002 236.444 352.85 237.56 351.05 237.56C349.412 237.56 348.476 236.624 348.476 234.752V229.46H346.748V234.95C346.748 237.758 348.386 239.108 350.852 239.108C352.202 239.108 353.39 238.55 354.092 237.56V239H355.73V229.46H354.002ZM365.77 229.46L362.476 237.092L359.146 229.46H357.346L361.558 238.982L361.252 239.648C360.784 240.746 360.262 241.124 359.434 241.124C358.786 241.124 358.192 240.872 357.724 240.422L356.986 241.718C357.58 242.294 358.516 242.6 359.434 242.6C360.892 242.6 361.99 241.97 362.836 239.954L367.462 229.46H365.77ZM377.433 234.284C377.433 231.35 375.471 229.37 372.717 229.37C369.963 229.37 367.929 231.404 367.929 234.23C367.929 237.074 369.981 239.108 373.059 239.108C374.643 239.108 375.957 238.568 376.821 237.56L375.867 236.444C375.165 237.218 374.229 237.596 373.113 237.596C371.223 237.596 369.873 236.48 369.657 234.806H377.397C377.415 234.644 377.433 234.428 377.433 234.284ZM372.717 230.828C374.391 230.828 375.597 231.962 375.777 233.564H369.657C369.837 231.944 371.061 230.828 372.717 230.828ZM381.488 231.062V229.46H379.832V239H381.56V234.248C381.56 232.16 382.712 231.026 384.566 231.026C384.692 231.026 384.818 231.026 384.962 231.044V229.37C383.288 229.37 382.1 229.946 381.488 231.062ZM389.898 239.108C392.436 239.108 394.02 238.01 394.02 236.282C394.02 232.574 387.972 234.41 387.972 232.16C387.972 231.404 388.71 230.846 390.222 230.846C391.158 230.846 392.112 231.044 392.976 231.602L393.714 230.234C392.886 229.694 391.482 229.37 390.24 229.37C387.792 229.37 386.262 230.522 386.262 232.232C386.262 236.03 392.292 234.176 392.292 236.318C392.292 237.128 391.626 237.614 390.024 237.614C388.782 237.614 387.486 237.2 386.676 236.624L385.956 237.992C386.748 238.622 388.314 239.108 389.898 239.108ZM396.612 236.642C395.928 236.642 395.406 237.146 395.406 237.866C395.406 238.406 395.712 238.82 396.162 238.982L395.496 241.664H396.63L397.476 239.162C397.71 238.496 397.782 238.226 397.782 237.866C397.782 237.164 397.296 236.642 396.612 236.642ZM409.916 237.2C409.556 237.488 409.07 237.65 408.566 237.65C407.612 237.65 407.072 237.074 407.072 236.048V230.882H409.808V229.46H407.072V227.372H405.344V229.46H403.724V230.882H405.344V236.12C405.344 238.046 406.442 239.108 408.368 239.108C409.142 239.108 409.934 238.892 410.456 238.442L409.916 237.2ZM417.639 229.37C416.181 229.37 414.993 229.892 414.273 230.81V225.644H412.545V239H414.273V234.086C414.273 232.016 415.461 230.918 417.297 230.918C418.935 230.918 419.871 231.836 419.871 233.708V239H421.599V233.51C421.599 230.702 419.961 229.37 417.639 229.37ZM433.472 234.284C433.472 231.35 431.51 229.37 428.756 229.37C426.002 229.37 423.968 231.404 423.968 234.23C423.968 237.074 426.02 239.108 429.098 239.108C430.682 239.108 431.996 238.568 432.86 237.56L431.906 236.444C431.204 237.218 430.268 237.596 429.152 237.596C427.262 237.596 425.912 236.48 425.696 234.806H433.436C433.454 234.644 433.472 234.428 433.472 234.284ZM428.756 230.828C430.43 230.828 431.636 231.962 431.816 233.564H425.696C425.876 231.944 427.1 230.828 428.756 230.828ZM442.446 229.46L439.152 237.092L435.822 229.46H434.022L438.234 238.982L437.928 239.648C437.46 240.746 436.938 241.124 436.11 241.124C435.462 241.124 434.868 240.872 434.4 240.422L433.662 241.718C434.256 242.294 435.192 242.6 436.11 242.6C437.568 242.6 438.666 241.97 439.512 239.954L444.138 229.46H442.446ZM454.058 229.37C452.528 229.37 451.106 229.802 450.116 230.594L450.836 231.89C451.574 231.26 452.726 230.864 453.86 230.864C455.57 230.864 456.416 231.71 456.416 233.168V233.51H453.68C450.836 233.51 449.846 234.77 449.846 236.3C449.846 237.956 451.214 239.108 453.374 239.108C454.868 239.108 455.93 238.604 456.506 237.74V239H458.144V233.24C458.144 230.63 456.668 229.37 454.058 229.37ZM453.662 237.776C452.348 237.776 451.556 237.182 451.556 236.228C451.556 235.418 452.042 234.752 453.752 234.752H456.416V236.084C455.984 237.182 454.958 237.776 453.662 237.776ZM462.998 231.062V229.46H461.342V239H463.07V234.248C463.07 232.16 464.222 231.026 466.076 231.026C466.202 231.026 466.328 231.026 466.472 231.044V229.37C464.798 229.37 463.61 229.946 462.998 231.062ZM477.136 234.284C477.136 231.35 475.174 229.37 472.42 229.37C469.666 229.37 467.632 231.404 467.632 234.23C467.632 237.074 469.684 239.108 472.762 239.108C474.346 239.108 475.66 238.568 476.524 237.56L475.57 236.444C474.868 237.218 473.932 237.596 472.816 237.596C470.926 237.596 469.576 236.48 469.36 234.806H477.1C477.118 234.644 477.136 234.428 477.136 234.284ZM472.42 230.828C474.094 230.828 475.3 231.962 475.48 233.564H469.36C469.54 231.944 470.764 230.828 472.42 230.828ZM50.0052 256.46L46.7112 264.092L43.3812 256.46H41.5812L45.7932 265.982L45.4872 266.648C45.0192 267.746 44.4972 268.124 43.6692 268.124C43.0212 268.124 42.4272 267.872 41.9592 267.422L41.2212 268.718C41.8152 269.294 42.7512 269.6 43.6692 269.6C45.1272 269.6 46.2252 268.97 47.0712 266.954L51.6972 256.46H50.0052ZM57.1322 266.108C59.9942 266.108 62.0822 264.074 62.0822 261.23C62.0822 258.386 59.9942 256.37 57.1322 256.37C54.2702 256.37 52.1642 258.386 52.1642 261.23C52.1642 264.074 54.2702 266.108 57.1322 266.108ZM57.1322 264.596C55.2962 264.596 53.9102 263.264 53.9102 261.23C53.9102 259.196 55.2962 257.882 57.1322 257.882C58.9682 257.882 60.3362 259.196 60.3362 261.23C60.3362 263.264 58.9682 264.596 57.1322 264.596ZM71.636 256.46V261.392C71.636 263.444 70.484 264.56 68.684 264.56C67.046 264.56 66.11 263.624 66.11 261.752V256.46H64.382V261.95C64.382 264.758 66.02 266.108 68.486 266.108C69.836 266.108 71.024 265.55 71.726 264.56V266H73.364V256.46H71.636ZM78.3096 258.062V256.46H76.6536V266H78.3816V261.248C78.3816 259.16 79.5336 258.026 81.3876 258.026C81.5136 258.026 81.6396 258.026 81.7836 258.044V256.37C80.1096 256.37 78.9216 256.946 78.3096 258.062ZM88.8704 266H90.5984V252.644H88.8704V266ZM97.9838 266.108C100.846 266.108 102.934 264.074 102.934 261.23C102.934 258.386 100.846 256.37 97.9838 256.37C95.1218 256.37 93.0158 258.386 93.0158 261.23C93.0158 264.074 95.1218 266.108 97.9838 266.108ZM97.9838 264.596C96.1478 264.596 94.7618 263.264 94.7618 261.23C94.7618 259.196 96.1478 257.882 97.9838 257.882C99.8198 257.882 101.188 259.196 101.188 261.23C101.188 263.264 99.8198 264.596 97.9838 264.596ZM110.418 256.37C108.906 256.37 107.682 256.928 106.98 257.9V256.46H105.324V266H107.052V261.086C107.052 259.016 108.24 257.918 110.076 257.918C111.714 257.918 112.65 258.836 112.65 260.708V266H114.378V260.51C114.378 257.702 112.74 256.37 110.418 256.37ZM125.116 256.46V257.936C124.306 256.892 123.01 256.37 121.588 256.37C118.834 256.37 116.746 258.224 116.746 260.978C116.746 263.732 118.834 265.604 121.588 265.604C122.956 265.604 124.198 265.118 125.026 264.128V264.884C125.026 267.044 124 268.088 121.75 268.088C120.346 268.088 118.96 267.602 118.078 266.846L117.25 268.178C118.294 269.114 120.058 269.6 121.804 269.6C125.044 269.6 126.754 268.07 126.754 264.704V256.46H125.116ZM121.786 264.092C119.86 264.092 118.492 262.814 118.492 260.978C118.492 259.124 119.86 257.882 121.786 257.882C123.694 257.882 125.062 259.124 125.062 260.978C125.062 262.814 123.694 264.092 121.786 264.092ZM129.444 261.806H134.286V260.312H129.444V261.806ZM141.946 264.2C141.586 264.488 141.1 264.65 140.596 264.65C139.642 264.65 139.102 264.074 139.102 263.048V257.882H141.838V256.46H139.102V254.372H137.374V256.46H135.754V257.882H137.374V263.12C137.374 265.046 138.472 266.108 140.398 266.108C141.172 266.108 141.964 265.892 142.486 265.442L141.946 264.2ZM152.881 261.284C152.881 258.35 150.919 256.37 148.165 256.37C145.411 256.37 143.377 258.404 143.377 261.23C143.377 264.074 145.429 266.108 148.507 266.108C150.091 266.108 151.405 265.568 152.269 264.56L151.315 263.444C150.613 264.218 149.677 264.596 148.561 264.596C146.671 264.596 145.321 263.48 145.105 261.806H152.845C152.863 261.644 152.881 261.428 152.881 261.284ZM148.165 257.828C149.839 257.828 151.045 258.962 151.225 260.564H145.105C145.285 258.944 146.509 257.828 148.165 257.828ZM156.937 258.062V256.46H155.281V266H157.009V261.248C157.009 259.16 158.161 258.026 160.015 258.026C160.141 258.026 160.267 258.026 160.411 258.044V256.37C158.737 256.37 157.549 256.946 156.937 258.062ZM174.474 256.37C172.854 256.37 171.522 257.054 170.802 258.134C170.172 256.946 168.948 256.37 167.49 256.37C166.05 256.37 164.88 256.91 164.196 257.882V256.46H162.54V266H164.268V261.086C164.268 259.016 165.402 257.918 167.13 257.918C168.696 257.918 169.596 258.836 169.596 260.708V266H171.324V261.086C171.324 259.016 172.458 257.918 174.186 257.918C175.752 257.918 176.652 258.836 176.652 260.708V266H178.38V260.51C178.38 257.702 176.796 256.37 174.474 256.37ZM191.452 256.37C190.048 256.37 188.824 256.91 188.05 257.972V256.46H186.394V269.492H188.122V264.56C188.914 265.586 190.102 266.108 191.452 266.108C194.242 266.108 196.276 264.164 196.276 261.23C196.276 258.314 194.242 256.37 191.452 256.37ZM191.308 264.596C189.49 264.596 188.104 263.264 188.104 261.23C188.104 259.214 189.49 257.882 191.308 257.882C193.144 257.882 194.53 259.214 194.53 261.23C194.53 263.264 193.144 264.596 191.308 264.596ZM202.05 256.37C200.52 256.37 199.098 256.802 198.108 257.594L198.828 258.89C199.566 258.26 200.718 257.864 201.852 257.864C203.562 257.864 204.408 258.71 204.408 260.168V260.51H201.672C198.828 260.51 197.838 261.77 197.838 263.3C197.838 264.956 199.206 266.108 201.366 266.108C202.86 266.108 203.922 265.604 204.498 264.74V266H206.136V260.24C206.136 257.63 204.66 256.37 202.05 256.37ZM201.654 264.776C200.34 264.776 199.548 264.182 199.548 263.228C199.548 262.418 200.034 261.752 201.744 261.752H204.408V263.084C203.976 264.182 202.95 264.776 201.654 264.776ZM210.989 258.062V256.46H209.333V266H211.061V261.248C211.061 259.16 212.213 258.026 214.067 258.026C214.193 258.026 214.319 258.026 214.463 258.044V256.37C212.789 256.37 211.601 256.946 210.989 258.062ZM221.804 264.2C221.444 264.488 220.958 264.65 220.454 264.65C219.5 264.65 218.96 264.074 218.96 263.048V257.882H221.696V256.46H218.96V254.372H217.232V256.46H215.612V257.882H217.232V263.12C217.232 265.046 218.33 266.108 220.256 266.108C221.03 266.108 221.822 265.892 222.344 265.442L221.804 264.2ZM229.527 256.37C228.015 256.37 226.791 256.928 226.089 257.9V256.46H224.433V266H226.161V261.086C226.161 259.016 227.349 257.918 229.185 257.918C230.823 257.918 231.759 258.836 231.759 260.708V266H233.487V260.51C233.487 257.702 231.849 256.37 229.527 256.37ZM245.36 261.284C245.36 258.35 243.398 256.37 240.644 256.37C237.89 256.37 235.856 258.404 235.856 261.23C235.856 264.074 237.908 266.108 240.986 266.108C242.57 266.108 243.884 265.568 244.748 264.56L243.794 263.444C243.092 264.218 242.156 264.596 241.04 264.596C239.15 264.596 237.8 263.48 237.584 261.806H245.324C245.342 261.644 245.36 261.428 245.36 261.284ZM240.644 257.828C242.318 257.828 243.524 258.962 243.704 260.564H237.584C237.764 258.944 238.988 257.828 240.644 257.828ZM249.415 258.062V256.46H247.759V266H249.487V261.248C249.487 259.16 250.639 258.026 252.493 258.026C252.619 258.026 252.745 258.026 252.889 258.044V256.37C251.215 256.37 250.027 256.946 249.415 258.062ZM257.825 266.108C260.363 266.108 261.947 265.01 261.947 263.282C261.947 259.574 255.899 261.41 255.899 259.16C255.899 258.404 256.637 257.846 258.149 257.846C259.085 257.846 260.039 258.044 260.903 258.602L261.641 257.234C260.813 256.694 259.409 256.37 258.167 256.37C255.719 256.37 254.189 257.522 254.189 259.232C254.189 263.03 260.219 261.176 260.219 263.318C260.219 264.128 259.553 264.614 257.951 264.614C256.709 264.614 255.413 264.2 254.603 263.624L253.883 264.992C254.675 265.622 256.241 266.108 257.825 266.108ZM264.539 263.642C263.855 263.642 263.333 264.146 263.333 264.866C263.333 265.406 263.639 265.82 264.089 265.982L263.423 268.664H264.557L265.403 266.162C265.637 265.496 265.709 265.226 265.709 264.866C265.709 264.164 265.223 263.642 264.539 263.642ZM275.755 266.108C278.293 266.108 279.877 265.01 279.877 263.282C279.877 259.574 273.829 261.41 273.829 259.16C273.829 258.404 274.567 257.846 276.079 257.846C277.015 257.846 277.969 258.044 278.833 258.602L279.571 257.234C278.743 256.694 277.339 256.37 276.097 256.37C273.649 256.37 272.119 257.522 272.119 259.232C272.119 263.03 278.149 261.176 278.149 263.318C278.149 264.128 277.483 264.614 275.881 264.614C274.639 264.614 273.343 264.2 272.533 263.624L271.813 264.992C272.605 265.622 274.171 266.108 275.755 266.108ZM286.122 266.108C288.984 266.108 291.072 264.074 291.072 261.23C291.072 258.386 288.984 256.37 286.122 256.37C283.26 256.37 281.154 258.386 281.154 261.23C281.154 264.074 283.26 266.108 286.122 266.108ZM286.122 264.596C284.286 264.596 282.9 263.264 282.9 261.23C282.9 259.196 284.286 257.882 286.122 257.882C287.958 257.882 289.326 259.196 289.326 261.23C289.326 263.264 287.958 264.596 286.122 264.596ZM311.184 256.46L308.34 264.092L305.514 256.46H304.056L301.176 264.056L298.404 256.46H296.766L300.312 266H301.968L304.758 258.764L307.512 266H309.168L312.732 256.46H311.184ZM322.844 261.284C322.844 258.35 320.882 256.37 318.128 256.37C315.374 256.37 313.34 258.404 313.34 261.23C313.34 264.074 315.392 266.108 318.47 266.108C320.054 266.108 321.368 265.568 322.232 264.56L321.278 263.444C320.576 264.218 319.64 264.596 318.524 264.596C316.634 264.596 315.284 263.48 315.068 261.806H322.808C322.826 261.644 322.844 261.428 322.844 261.284ZM318.128 257.828C319.802 257.828 321.008 258.962 321.188 260.564H315.068C315.248 258.944 316.472 257.828 318.128 257.828ZM334.235 266.108C335.945 266.108 337.367 265.388 338.123 264.056L336.809 263.228C336.197 264.164 335.261 264.596 334.217 264.596C332.345 264.596 330.941 263.3 330.941 261.23C330.941 259.196 332.345 257.882 334.217 257.882C335.261 257.882 336.197 258.314 336.809 259.25L338.123 258.404C337.367 257.072 335.945 256.37 334.235 256.37C331.301 256.37 329.195 258.386 329.195 261.23C329.195 264.074 331.301 266.108 334.235 266.108ZM342.017 258.062V256.46H340.361V266H342.089V261.248C342.089 259.16 343.241 258.026 345.095 258.026C345.221 258.026 345.347 258.026 345.491 258.044V256.37C343.817 256.37 342.629 256.946 342.017 258.062ZM356.155 261.284C356.155 258.35 354.193 256.37 351.439 256.37C348.685 256.37 346.651 258.404 346.651 261.23C346.651 264.074 348.703 266.108 351.781 266.108C353.365 266.108 354.679 265.568 355.543 264.56L354.589 263.444C353.887 264.218 352.951 264.596 351.835 264.596C349.945 264.596 348.595 263.48 348.379 261.806H356.119C356.137 261.644 356.155 261.428 356.155 261.284ZM351.439 257.828C353.113 257.828 354.319 258.962 354.499 260.564H348.379C348.559 258.944 349.783 257.828 351.439 257.828ZM361.764 256.37C360.234 256.37 358.812 256.802 357.822 257.594L358.542 258.89C359.28 258.26 360.432 257.864 361.566 257.864C363.276 257.864 364.122 258.71 364.122 260.168V260.51H361.386C358.542 260.51 357.552 261.77 357.552 263.3C357.552 264.956 358.92 266.108 361.08 266.108C362.574 266.108 363.636 265.604 364.212 264.74V266H365.85V260.24C365.85 257.63 364.374 256.37 361.764 256.37ZM361.368 264.776C360.054 264.776 359.262 264.182 359.262 263.228C359.262 262.418 359.748 261.752 361.458 261.752H364.122V263.084C363.69 264.182 362.664 264.776 361.368 264.776ZM373.872 264.2C373.512 264.488 373.026 264.65 372.522 264.65C371.568 264.65 371.028 264.074 371.028 263.048V257.882H373.764V256.46H371.028V254.372H369.3V256.46H367.68V257.882H369.3V263.12C369.3 265.046 370.398 266.108 372.324 266.108C373.098 266.108 373.89 265.892 374.412 265.442L373.872 264.2ZM384.807 261.284C384.807 258.35 382.845 256.37 380.091 256.37C377.337 256.37 375.303 258.404 375.303 261.23C375.303 264.074 377.355 266.108 380.433 266.108C382.017 266.108 383.331 265.568 384.195 264.56L383.241 263.444C382.539 264.218 381.603 264.596 380.487 264.596C378.597 264.596 377.247 263.48 377.031 261.806H384.771C384.789 261.644 384.807 261.428 384.807 261.284ZM380.091 257.828C381.765 257.828 382.971 258.962 383.151 260.564H377.031C377.211 258.944 378.435 257.828 380.091 257.828ZM394.478 252.644V257.9C393.686 256.874 392.498 256.37 391.148 256.37C388.358 256.37 386.324 258.314 386.324 261.23C386.324 264.146 388.358 266.108 391.148 266.108C392.552 266.108 393.776 265.568 394.55 264.488V266H396.206V252.644H394.478ZM391.292 264.596C389.456 264.596 388.07 263.264 388.07 261.23C388.07 259.196 389.456 257.882 391.292 257.882C393.11 257.882 394.496 259.196 394.496 261.23C394.496 263.264 393.11 264.596 391.292 264.596ZM409.134 264.2C408.774 264.488 408.288 264.65 407.784 264.65C406.83 264.65 406.29 264.074 406.29 263.048V257.882H409.026V256.46H406.29V254.372H404.562V256.46H402.942V257.882H404.562V263.12C404.562 265.046 405.66 266.108 407.586 266.108C408.36 266.108 409.152 265.892 409.674 265.442L409.134 264.2ZM416.857 256.37C415.399 256.37 414.211 256.892 413.491 257.81V252.644H411.763V266H413.491V261.086C413.491 259.016 414.679 257.918 416.515 257.918C418.153 257.918 419.089 258.836 419.089 260.708V266H420.817V260.51C420.817 257.702 419.179 256.37 416.857 256.37ZM432.69 261.284C432.69 258.35 430.728 256.37 427.974 256.37C425.22 256.37 423.186 258.404 423.186 261.23C423.186 264.074 425.238 266.108 428.316 266.108C429.9 266.108 431.214 265.568 432.078 264.56L431.124 263.444C430.422 264.218 429.486 264.596 428.37 264.596C426.48 264.596 425.13 263.48 424.914 261.806H432.654C432.672 261.644 432.69 261.428 432.69 261.284ZM427.974 257.828C429.648 257.828 430.854 258.962 431.034 260.564H424.914C425.094 258.944 426.318 257.828 427.974 257.828ZM440.751 255.326L441.417 252.644H440.283L439.437 255.164C439.185 255.83 439.113 256.1 439.113 256.442C439.113 257.144 439.617 257.666 440.319 257.666C440.985 257.666 441.507 257.162 441.507 256.442C441.507 255.884 441.219 255.488 440.751 255.326ZM444.153 255.326L444.819 252.644H443.685L442.839 255.164C442.587 255.83 442.515 256.1 442.515 256.442C442.515 257.144 443.019 257.666 443.721 257.666C444.387 257.666 444.909 257.162 444.909 256.442C444.909 255.884 444.621 255.488 444.153 255.326ZM456.681 266H459.741L454.107 253.4H451.227L445.611 266H448.599L449.715 263.3H455.565L456.681 266ZM450.651 261.086L452.649 256.262L454.647 261.086H450.651ZM460.851 266H463.659V252.644H460.851V266ZM466.265 266H469.073V252.644H466.265V266ZM37.9886 283.172C36.7466 283.172 35.6666 283.568 34.9106 284.324V279.644H32.1026V293H34.9106V288.212C34.9106 286.43 35.8826 285.602 37.2326 285.602C38.4746 285.602 39.1946 286.322 39.1946 287.888V293H42.0026V287.456C42.0026 284.504 40.2746 283.172 37.9886 283.172ZM49.2614 293.144C52.3394 293.144 54.5714 291.074 54.5714 288.158C54.5714 285.242 52.3394 283.172 49.2614 283.172C46.1834 283.172 43.9334 285.242 43.9334 288.158C43.9334 291.074 46.1834 293.144 49.2614 293.144ZM49.2614 290.84C47.8574 290.84 46.7774 289.832 46.7774 288.158C46.7774 286.484 47.8574 285.476 49.2614 285.476C50.6654 285.476 51.7274 286.484 51.7274 288.158C51.7274 289.832 50.6654 290.84 49.2614 290.84ZM56.4483 293H59.2563V279.644H56.4483V293ZM68.9184 279.644V284.342C68.2164 283.55 67.2084 283.172 66.0204 283.172C63.2844 283.172 61.1784 285.116 61.1784 288.158C61.1784 291.2 63.2844 293.144 66.0204 293.144C67.3164 293.144 68.3424 292.73 69.0444 291.884V293H71.7264V279.644H68.9184ZM66.5064 290.84C65.1024 290.84 64.0224 289.832 64.0224 288.158C64.0224 286.484 65.1024 285.476 66.5064 285.476C67.8924 285.476 68.9724 286.484 68.9724 288.158C68.9724 289.832 67.8924 290.84 66.5064 290.84ZM83.8113 288.194C83.8113 285.08 81.6153 283.172 78.7713 283.172C75.8193 283.172 73.6053 285.26 73.6053 288.158C73.6053 291.038 75.7833 293.144 79.1313 293.144C80.8773 293.144 82.2273 292.604 83.1273 291.578L81.6333 289.958C80.9673 290.588 80.2293 290.894 79.2033 290.894C77.7273 290.894 76.7013 290.156 76.4313 288.95H83.7573C83.7753 288.716 83.8113 288.41 83.8113 288.194ZM78.7893 285.296C80.0493 285.296 80.9673 286.088 81.1653 287.312H76.3953C76.5933 286.07 77.5113 285.296 78.7893 285.296ZM88.3628 284.594V283.316H85.6808V293H88.4888V288.428C88.4888 286.574 89.5148 285.728 91.0628 285.728C91.2788 285.728 91.4588 285.746 91.6928 285.764V283.172C90.1988 283.172 89.0468 283.658 88.3628 284.594ZM96.6556 293.144C99.5536 293.144 101.228 291.866 101.228 290.066C101.228 286.25 95.3776 287.852 95.3776 286.196C95.3776 285.692 95.9176 285.296 97.1776 285.296C98.0596 285.296 99.0136 285.476 99.9676 286.016L100.904 284.018C99.9856 283.478 98.5096 283.172 97.1776 283.172C94.3516 283.172 92.6956 284.468 92.6956 286.304C92.6956 290.174 98.5456 288.554 98.5456 290.138C98.5456 290.678 98.0596 291.02 96.7636 291.02C95.5756 291.02 94.2616 290.642 93.3976 290.084L92.4616 292.1C93.3616 292.694 95.0176 293.144 96.6556 293.144ZM111.316 293.144C114.214 293.144 115.888 291.866 115.888 290.066C115.888 286.25 110.038 287.852 110.038 286.196C110.038 285.692 110.578 285.296 111.838 285.296C112.72 285.296 113.674 285.476 114.628 286.016L115.564 284.018C114.646 283.478 113.17 283.172 111.838 283.172C109.012 283.172 107.356 284.468 107.356 286.304C107.356 290.174 113.206 288.554 113.206 290.138C113.206 290.678 112.72 291.02 111.424 291.02C110.236 291.02 108.922 290.642 108.058 290.084L107.122 292.1C108.022 292.694 109.678 293.144 111.316 293.144ZM123.506 283.172C122.264 283.172 121.184 283.568 120.428 284.324V279.644H117.62V293H120.428V288.212C120.428 286.43 121.4 285.602 122.75 285.602C123.992 285.602 124.712 286.322 124.712 287.888V293H127.52V287.456C127.52 284.504 125.792 283.172 123.506 283.172ZM133.972 283.172C132.424 283.172 130.858 283.586 129.796 284.342L130.804 286.304C131.506 285.746 132.568 285.404 133.594 285.404C135.106 285.404 135.826 286.106 135.826 287.312H133.594C130.642 287.312 129.436 288.5 129.436 290.21C129.436 291.884 130.786 293.144 133.054 293.144C134.476 293.144 135.484 292.676 136.006 291.794V293H138.634V287.474C138.634 284.54 136.924 283.172 133.972 283.172ZM133.756 291.254C132.766 291.254 132.172 290.786 132.172 290.084C132.172 289.436 132.586 288.95 133.9 288.95H135.826V289.94C135.502 290.822 134.692 291.254 133.756 291.254ZM143.857 284.594V283.316H141.175V293H143.983V288.428C143.983 286.574 145.009 285.728 146.557 285.728C146.773 285.728 146.953 285.746 147.187 285.764V283.172C145.693 283.172 144.541 283.658 143.857 284.594ZM158.255 288.194C158.255 285.08 156.059 283.172 153.215 283.172C150.263 283.172 148.049 285.26 148.049 288.158C148.049 291.038 150.227 293.144 153.575 293.144C155.321 293.144 156.671 292.604 157.571 291.578L156.077 289.958C155.411 290.588 154.673 290.894 153.647 290.894C152.171 290.894 151.145 290.156 150.875 288.95H158.201C158.219 288.716 158.255 288.41 158.255 288.194ZM153.233 285.296C154.493 285.296 155.411 286.088 155.609 287.312H150.839C151.037 286.07 151.955 285.296 153.233 285.296ZM160.898 279.536C160.214 279.536 159.692 280.04 159.692 280.76C159.692 281.3 159.998 281.714 160.448 281.876L159.782 284.558H160.916L161.78 282.038C162.014 281.372 162.068 281.102 162.068 280.76C162.068 280.058 161.582 279.536 160.898 279.536ZM164.3 279.536C163.616 279.536 163.094 280.04 163.094 280.76C163.094 281.3 163.4 281.714 163.85 281.876L163.184 284.558H164.318L165.182 282.038C165.416 281.372 165.47 281.102 165.47 280.76C165.47 280.058 164.984 279.536 164.3 279.536ZM168.07 290.642C167.386 290.642 166.864 291.146 166.864 291.866C166.864 292.406 167.17 292.82 167.62 292.982L166.954 295.664H168.088L168.934 293.162C169.168 292.496 169.24 292.226 169.24 291.866C169.24 291.164 168.754 290.642 168.07 290.642ZM184.038 283.46V284.936C183.228 283.892 181.932 283.37 180.51 283.37C177.756 283.37 175.668 285.224 175.668 287.978C175.668 290.732 177.756 292.604 180.51 292.604C181.878 292.604 183.12 292.118 183.948 291.128V291.884C183.948 294.044 182.922 295.088 180.672 295.088C179.268 295.088 177.882 294.602 177 293.846L176.172 295.178C177.216 296.114 178.98 296.6 180.726 296.6C183.966 296.6 185.676 295.07 185.676 291.704V283.46H184.038ZM180.708 291.092C178.782 291.092 177.414 289.814 177.414 287.978C177.414 286.124 178.782 284.882 180.708 284.882C182.616 284.882 183.984 286.124 183.984 287.978C183.984 289.814 182.616 291.092 180.708 291.092ZM189.842 281.624C190.526 281.624 191.012 281.12 191.012 280.472C191.012 279.86 190.508 279.374 189.842 279.374C189.176 279.374 188.672 279.878 188.672 280.508C188.672 281.138 189.176 281.624 189.842 281.624ZM188.978 293H190.706V283.46H188.978V293ZM200.755 283.46L197.407 291.11L194.131 283.46H192.331L196.507 293H198.271L202.447 283.46H200.755ZM204.924 281.624C205.608 281.624 206.094 281.12 206.094 280.472C206.094 279.86 205.59 279.374 204.924 279.374C204.258 279.374 203.754 279.878 203.754 280.508C203.754 281.138 204.258 281.624 204.924 281.624ZM204.06 293H205.788V283.46H204.06V293ZM214.181 283.37C212.669 283.37 211.445 283.928 210.743 284.9V283.46H209.087V293H210.815V288.086C210.815 286.016 212.003 284.918 213.839 284.918C215.477 284.918 216.413 285.836 216.413 287.708V293H218.141V287.51C218.141 284.702 216.503 283.37 214.181 283.37ZM228.88 283.46V284.936C228.07 283.892 226.774 283.37 225.352 283.37C222.598 283.37 220.51 285.224 220.51 287.978C220.51 290.732 222.598 292.604 225.352 292.604C226.72 292.604 227.962 292.118 228.79 291.128V291.884C228.79 294.044 227.764 295.088 225.514 295.088C224.11 295.088 222.724 294.602 221.842 293.846L221.014 295.178C222.058 296.114 223.822 296.6 225.568 296.6C228.808 296.6 230.518 295.07 230.518 291.704V283.46H228.88ZM225.55 291.092C223.624 291.092 222.256 289.814 222.256 287.978C222.256 286.124 223.624 284.882 225.55 284.882C227.458 284.882 228.826 286.124 228.826 287.978C228.826 289.814 227.458 291.092 225.55 291.092ZM243.748 283.37C242.29 283.37 241.102 283.892 240.382 284.81V279.644H238.654V293H240.382V288.086C240.382 286.016 241.57 284.918 243.406 284.918C245.044 284.918 245.98 285.836 245.98 287.708V293H247.708V287.51C247.708 284.702 246.07 283.37 243.748 283.37ZM255.044 293.108C257.906 293.108 259.994 291.074 259.994 288.23C259.994 285.386 257.906 283.37 255.044 283.37C252.182 283.37 250.076 285.386 250.076 288.23C250.076 291.074 252.182 293.108 255.044 293.108ZM255.044 291.596C253.208 291.596 251.822 290.264 251.822 288.23C251.822 286.196 253.208 284.882 255.044 284.882C256.88 284.882 258.248 286.196 258.248 288.23C258.248 290.264 256.88 291.596 255.044 291.596ZM262.384 293H264.112V279.644H262.384V293ZM274.683 279.644V284.9C273.891 283.874 272.703 283.37 271.353 283.37C268.563 283.37 266.529 285.314 266.529 288.23C266.529 291.146 268.563 293.108 271.353 293.108C272.757 293.108 273.981 292.568 274.755 291.488V293H276.411V279.644H274.683ZM271.497 291.596C269.661 291.596 268.275 290.264 268.275 288.23C268.275 286.196 269.661 284.882 271.497 284.882C273.315 284.882 274.701 286.196 274.701 288.23C274.701 290.264 273.315 291.596 271.497 291.596ZM288.303 288.284C288.303 285.35 286.341 283.37 283.587 283.37C280.833 283.37 278.799 285.404 278.799 288.23C278.799 291.074 280.851 293.108 283.929 293.108C285.513 293.108 286.827 292.568 287.691 291.56L286.737 290.444C286.035 291.218 285.099 291.596 283.983 291.596C282.093 291.596 280.743 290.48 280.527 288.806H288.267C288.285 288.644 288.303 288.428 288.303 288.284ZM283.587 284.828C285.261 284.828 286.467 285.962 286.647 287.564H280.527C280.707 285.944 281.931 284.828 283.587 284.828ZM292.358 285.062V283.46H290.702V293H292.43V288.248C292.43 286.16 293.582 285.026 295.436 285.026C295.562 285.026 295.688 285.026 295.832 285.044V283.37C294.158 283.37 292.97 283.946 292.358 285.062ZM300.769 293.108C303.307 293.108 304.891 292.01 304.891 290.282C304.891 286.574 298.843 288.41 298.843 286.16C298.843 285.404 299.581 284.846 301.093 284.846C302.029 284.846 302.983 285.044 303.847 285.602L304.585 284.234C303.757 283.694 302.353 283.37 301.111 283.37C298.663 283.37 297.133 284.522 297.133 286.232C297.133 290.03 303.163 288.176 303.163 290.318C303.163 291.128 302.497 291.614 300.895 291.614C299.653 291.614 298.357 291.2 297.547 290.624L296.827 291.992C297.619 292.622 299.185 293.108 300.769 293.108ZM313.54 285.062V283.46H311.884V293H313.612V288.248C313.612 286.16 314.764 285.026 316.618 285.026C316.744 285.026 316.87 285.026 317.014 285.044V283.37C315.34 283.37 314.152 283.946 313.54 285.062ZM323.142 293.108C326.004 293.108 328.092 291.074 328.092 288.23C328.092 285.386 326.004 283.37 323.142 283.37C320.28 283.37 318.174 285.386 318.174 288.23C318.174 291.074 320.28 293.108 323.142 293.108ZM323.142 291.596C321.306 291.596 319.92 290.264 319.92 288.23C319.92 286.196 321.306 284.882 323.142 284.882C324.978 284.882 326.346 286.196 326.346 288.23C326.346 290.264 324.978 291.596 323.142 291.596ZM336.968 283.46L333.674 291.092L330.344 283.46H328.544L332.756 292.982L332.45 293.648C331.982 294.746 331.46 295.124 330.632 295.124C329.984 295.124 329.39 294.872 328.922 294.422L328.184 295.718C328.778 296.294 329.714 296.6 330.632 296.6C332.09 296.6 333.188 295.97 334.034 293.954L338.66 283.46H336.968ZM343.448 283.37C341.918 283.37 340.496 283.802 339.506 284.594L340.226 285.89C340.964 285.26 342.116 284.864 343.25 284.864C344.96 284.864 345.806 285.71 345.806 287.168V287.51H343.07C340.226 287.51 339.236 288.77 339.236 290.3C339.236 291.956 340.604 293.108 342.764 293.108C344.258 293.108 345.32 292.604 345.896 291.74V293H347.534V287.24C347.534 284.63 346.058 283.37 343.448 283.37ZM343.052 291.776C341.738 291.776 340.946 291.182 340.946 290.228C340.946 289.418 341.432 288.752 343.142 288.752H345.806V290.084C345.374 291.182 344.348 291.776 343.052 291.776ZM350.732 293H352.46V279.644H350.732V293ZM360.812 291.2C360.452 291.488 359.966 291.65 359.462 291.65C358.508 291.65 357.968 291.074 357.968 290.048V284.882H360.704V283.46H357.968V281.372H356.24V283.46H354.62V284.882H356.24V290.12C356.24 292.046 357.338 293.108 359.264 293.108C360.038 293.108 360.83 292.892 361.352 292.442L360.812 291.2ZM364.305 281.624C364.989 281.624 365.475 281.12 365.475 280.472C365.475 279.86 364.971 279.374 364.305 279.374C363.639 279.374 363.135 279.878 363.135 280.508C363.135 281.138 363.639 281.624 364.305 281.624ZM363.441 293H365.169V283.46H363.441V293ZM377.09 288.284C377.09 285.35 375.128 283.37 372.374 283.37C369.62 283.37 367.586 285.404 367.586 288.23C367.586 291.074 369.638 293.108 372.716 293.108C374.3 293.108 375.614 292.568 376.478 291.56L375.524 290.444C374.822 291.218 373.886 291.596 372.77 291.596C370.88 291.596 369.53 290.48 369.314 288.806H377.054C377.072 288.644 377.09 288.428 377.09 288.284ZM372.374 284.828C374.048 284.828 375.254 285.962 375.434 287.564H369.314C369.494 285.944 370.718 284.828 372.374 284.828ZM382.226 293.108C384.764 293.108 386.348 292.01 386.348 290.282C386.348 286.574 380.3 288.41 380.3 286.16C380.3 285.404 381.038 284.846 382.55 284.846C383.486 284.846 384.44 285.044 385.304 285.602L386.042 284.234C385.214 283.694 383.81 283.37 382.568 283.37C380.12 283.37 378.59 284.522 378.59 286.232C378.59 290.03 384.62 288.176 384.62 290.318C384.62 291.128 383.954 291.614 382.352 291.614C381.11 291.614 379.814 291.2 379.004 290.624L378.284 291.992C379.076 292.622 380.642 293.108 382.226 293.108ZM406.229 283.46L403.385 291.092L400.559 283.46H399.101L396.221 291.056L393.449 283.46H391.811L395.357 293H397.013L399.803 285.764L402.557 293H404.213L407.777 283.46H406.229ZM414.625 283.37C413.167 283.37 411.979 283.892 411.259 284.81V279.644H409.531V293H411.259V288.086C411.259 286.016 412.447 284.918 414.283 284.918C415.921 284.918 416.857 285.836 416.857 287.708V293H418.585V287.51C418.585 284.702 416.947 283.37 414.625 283.37ZM430.457 288.284C430.457 285.35 428.495 283.37 425.741 283.37C422.987 283.37 420.953 285.404 420.953 288.23C420.953 291.074 423.005 293.108 426.083 293.108C427.667 293.108 428.981 292.568 429.845 291.56L428.891 290.444C428.189 291.218 427.253 291.596 426.137 291.596C424.247 291.596 422.897 290.48 422.681 288.806H430.421C430.439 288.644 430.457 288.428 430.457 288.284ZM425.741 284.828C427.415 284.828 428.621 285.962 428.801 287.564H422.681C422.861 285.944 424.085 284.828 425.741 284.828ZM437.951 283.37C436.439 283.37 435.215 283.928 434.513 284.9V283.46H432.857V293H434.585V288.086C434.585 286.016 435.773 284.918 437.609 284.918C439.247 284.918 440.183 285.836 440.183 287.708V293H441.911V287.51C441.911 284.702 440.273 283.37 437.951 283.37ZM453.417 283.37C451.887 283.37 450.465 283.802 449.475 284.594L450.195 285.89C450.933 285.26 452.085 284.864 453.219 284.864C454.929 284.864 455.775 285.71 455.775 287.168V287.51H453.039C450.195 287.51 449.205 288.77 449.205 290.3C449.205 291.956 450.573 293.108 452.733 293.108C454.227 293.108 455.289 292.604 455.865 291.74V293H457.503V287.24C457.503 284.63 456.027 283.37 453.417 283.37ZM453.021 291.776C451.707 291.776 450.915 291.182 450.915 290.228C450.915 289.418 451.401 288.752 453.111 288.752H455.775V290.084C455.343 291.182 454.317 291.776 453.021 291.776ZM465.795 283.37C464.283 283.37 463.059 283.928 462.357 284.9V283.46H460.701V293H462.429V288.086C462.429 286.016 463.617 284.918 465.453 284.918C467.091 284.918 468.027 285.836 468.027 287.708V293H469.755V287.51C469.755 284.702 468.117 283.37 465.795 283.37ZM479.527 283.46L476.233 291.092L472.903 283.46H471.103L475.315 292.982L475.009 293.648C474.541 294.746 474.019 295.124 473.191 295.124C472.543 295.124 471.949 294.872 471.481 294.422L470.743 295.718C471.337 296.294 472.273 296.6 473.191 296.6C474.649 296.6 475.747 295.97 476.593 293.954L481.219 283.46H479.527ZM42.3702 308.624C43.0542 308.624 43.5402 308.12 43.5402 307.472C43.5402 306.86 43.0362 306.374 42.3702 306.374C41.7042 306.374 41.2002 306.878 41.2002 307.508C41.2002 308.138 41.7042 308.624 42.3702 308.624ZM41.5062 320H43.2342V310.46H41.5062V320ZM51.3575 318.2C50.9975 318.488 50.5115 318.65 50.0075 318.65C49.0535 318.65 48.5135 318.074 48.5135 317.048V311.882H51.2495V310.46H48.5135V308.372H46.7855V310.46H45.1655V311.882H46.7855V317.12C46.7855 319.046 47.8835 320.108 49.8095 320.108C50.5835 320.108 51.3755 319.892 51.8975 319.442L51.3575 318.2ZM62.2922 315.284C62.2922 312.35 60.3302 310.37 57.5762 310.37C54.8222 310.37 52.7882 312.404 52.7882 315.23C52.7882 318.074 54.8402 320.108 57.9182 320.108C59.5022 320.108 60.8162 319.568 61.6802 318.56L60.7262 317.444C60.0242 318.218 59.0882 318.596 57.9722 318.596C56.0822 318.596 54.7322 317.48 54.5162 315.806H62.2562C62.2742 315.644 62.2922 315.428 62.2922 315.284ZM57.5762 311.828C59.2502 311.828 60.4562 312.962 60.6362 314.564H54.5162C54.6962 312.944 55.9202 311.828 57.5762 311.828ZM76.6257 310.37C75.0057 310.37 73.6737 311.054 72.9537 312.134C72.3237 310.946 71.0997 310.37 69.6417 310.37C68.2017 310.37 67.0317 310.91 66.3477 311.882V310.46H64.6917V320H66.4197V315.086C66.4197 313.016 67.5537 311.918 69.2817 311.918C70.8477 311.918 71.7477 312.836 71.7477 314.708V320H73.4757V315.086C73.4757 313.016 74.6097 311.918 76.3377 311.918C77.9037 311.918 78.8037 312.836 78.8037 314.708V320H80.5317V314.51C80.5317 311.702 78.9477 310.37 76.6257 310.37ZM89.4092 308.624C90.0932 308.624 90.5792 308.12 90.5792 307.472C90.5792 306.86 90.0752 306.374 89.4092 306.374C88.7432 306.374 88.2392 306.878 88.2392 307.508C88.2392 308.138 88.7432 308.624 89.4092 308.624ZM88.5452 320H90.2732V310.46H88.5452V320ZM98.6666 310.37C97.1546 310.37 95.9306 310.928 95.2286 311.9V310.46H93.5726V320H95.3006V315.086C95.3006 313.016 96.4886 311.918 98.3246 311.918C99.9626 311.918 100.899 312.836 100.899 314.708V320H102.627V314.51C102.627 311.702 100.989 310.37 98.6666 310.37ZM115.483 318.2C115.123 318.488 114.637 318.65 114.133 318.65C113.179 318.65 112.639 318.074 112.639 317.048V311.882H115.375V310.46H112.639V308.372H110.911V310.46H109.291V311.882H110.911V317.12C110.911 319.046 112.009 320.108 113.935 320.108C114.709 320.108 115.501 319.892 116.023 319.442L115.483 318.2ZM123.206 310.37C121.748 310.37 120.56 310.892 119.84 311.81V306.644H118.112V320H119.84V315.086C119.84 313.016 121.028 311.918 122.864 311.918C124.502 311.918 125.438 312.836 125.438 314.708V320H127.166V314.51C127.166 311.702 125.528 310.37 123.206 310.37ZM139.038 315.284C139.038 312.35 137.076 310.37 134.322 310.37C131.568 310.37 129.534 312.404 129.534 315.23C129.534 318.074 131.586 320.108 134.664 320.108C136.248 320.108 137.562 319.568 138.426 318.56L137.472 317.444C136.77 318.218 135.834 318.596 134.718 318.596C132.828 318.596 131.478 317.48 131.262 315.806H139.002C139.02 315.644 139.038 315.428 139.038 315.284ZM134.322 311.828C135.996 311.828 137.202 312.962 137.382 314.564H131.262C131.442 312.944 132.666 311.828 134.322 311.828ZM150.43 320.108C152.14 320.108 153.562 319.388 154.318 318.056L153.004 317.228C152.392 318.164 151.456 318.596 150.412 318.596C148.54 318.596 147.136 317.3 147.136 315.23C147.136 313.196 148.54 311.882 150.412 311.882C151.456 311.882 152.392 312.314 153.004 313.25L154.318 312.404C153.562 311.072 152.14 310.37 150.43 310.37C147.496 310.37 145.39 312.386 145.39 315.23C145.39 318.074 147.496 320.108 150.43 320.108ZM160.5 320.108C163.362 320.108 165.45 318.074 165.45 315.23C165.45 312.386 163.362 310.37 160.5 310.37C157.638 310.37 155.532 312.386 155.532 315.23C155.532 318.074 157.638 320.108 160.5 320.108ZM160.5 318.596C158.664 318.596 157.278 317.264 157.278 315.23C157.278 313.196 158.664 311.882 160.5 311.882C162.336 311.882 163.704 313.196 163.704 315.23C163.704 317.264 162.336 318.596 160.5 318.596ZM167.84 320H169.568V306.644H167.84V320ZM172.867 320H174.595V306.644H172.867V320ZM186.517 315.284C186.517 312.35 184.555 310.37 181.801 310.37C179.047 310.37 177.013 312.404 177.013 315.23C177.013 318.074 179.065 320.108 182.143 320.108C183.727 320.108 185.041 319.568 185.905 318.56L184.951 317.444C184.249 318.218 183.313 318.596 182.197 318.596C180.307 318.596 178.957 317.48 178.741 315.806H186.481C186.499 315.644 186.517 315.428 186.517 315.284ZM181.801 311.828C183.475 311.828 184.681 312.962 184.861 314.564H178.741C178.921 312.944 180.145 311.828 181.801 311.828ZM193.074 320.108C194.784 320.108 196.206 319.388 196.962 318.056L195.648 317.228C195.036 318.164 194.1 318.596 193.056 318.596C191.184 318.596 189.78 317.3 189.78 315.23C189.78 313.196 191.184 311.882 193.056 311.882C194.1 311.882 195.036 312.314 195.648 313.25L196.962 312.404C196.206 311.072 194.784 310.37 193.074 310.37C190.14 310.37 188.034 312.386 188.034 315.23C188.034 318.074 190.14 320.108 193.074 320.108ZM204.147 318.2C203.787 318.488 203.301 318.65 202.797 318.65C201.843 318.65 201.303 318.074 201.303 317.048V311.882H204.039V310.46H201.303V308.372H199.575V310.46H197.955V311.882H199.575V317.12C199.575 319.046 200.673 320.108 202.599 320.108C203.373 320.108 204.165 319.892 204.687 319.442L204.147 318.2ZM207.64 308.624C208.324 308.624 208.81 308.12 208.81 307.472C208.81 306.86 208.306 306.374 207.64 306.374C206.974 306.374 206.47 306.878 206.47 307.508C206.47 308.138 206.974 308.624 207.64 308.624ZM206.776 320H208.504V310.46H206.776V320ZM215.889 320.108C218.751 320.108 220.839 318.074 220.839 315.23C220.839 312.386 218.751 310.37 215.889 310.37C213.027 310.37 210.921 312.386 210.921 315.23C210.921 318.074 213.027 320.108 215.889 320.108ZM215.889 318.596C214.053 318.596 212.667 317.264 212.667 315.23C212.667 313.196 214.053 311.882 215.889 311.882C217.725 311.882 219.093 313.196 219.093 315.23C219.093 317.264 217.725 318.596 215.889 318.596ZM228.323 310.37C226.811 310.37 225.587 310.928 224.885 311.9V310.46H223.229V320H224.957V315.086C224.957 313.016 226.145 311.918 227.981 311.918C229.619 311.918 230.555 312.836 230.555 314.708V320H232.283V314.51C232.283 311.702 230.645 310.37 228.323 310.37ZM241.179 308.624C241.863 308.624 242.349 308.12 242.349 307.472C242.349 306.86 241.845 306.374 241.179 306.374C240.513 306.374 240.009 306.878 240.009 307.508C240.009 308.138 240.513 308.624 241.179 308.624ZM240.315 320H242.043V310.46H240.315V320ZM248.078 320.108C250.616 320.108 252.2 319.01 252.2 317.282C252.2 313.574 246.152 315.41 246.152 313.16C246.152 312.404 246.89 311.846 248.402 311.846C249.338 311.846 250.292 312.044 251.156 312.602L251.894 311.234C251.066 310.694 249.662 310.37 248.42 310.37C245.972 310.37 244.442 311.522 244.442 313.232C244.442 317.03 250.472 315.176 250.472 317.318C250.472 318.128 249.806 318.614 248.204 318.614C246.962 318.614 245.666 318.2 244.856 317.624L244.136 318.992C244.928 319.622 246.494 320.108 248.078 320.108ZM261.93 320.108C264.468 320.108 266.052 319.01 266.052 317.282C266.052 313.574 260.004 315.41 260.004 313.16C260.004 312.404 260.742 311.846 262.254 311.846C263.19 311.846 264.144 312.044 265.008 312.602L265.746 311.234C264.918 310.694 263.514 310.37 262.272 310.37C259.824 310.37 258.294 311.522 258.294 313.232C258.294 317.03 264.324 315.176 264.324 317.318C264.324 318.128 263.658 318.614 262.056 318.614C260.814 318.614 259.518 318.2 258.708 317.624L257.988 318.992C258.78 319.622 260.346 320.108 261.93 320.108ZM272.297 320.108C275.159 320.108 277.247 318.074 277.247 315.23C277.247 312.386 275.159 310.37 272.297 310.37C269.435 310.37 267.329 312.386 267.329 315.23C267.329 318.074 269.435 320.108 272.297 320.108ZM272.297 318.596C270.461 318.596 269.075 317.264 269.075 315.23C269.075 313.196 270.461 311.882 272.297 311.882C274.133 311.882 275.501 313.196 275.501 315.23C275.501 317.264 274.133 318.596 272.297 318.596ZM279.637 320H281.365V306.644H279.637V320ZM291.936 306.644V311.9C291.144 310.874 289.956 310.37 288.606 310.37C285.816 310.37 283.782 312.314 283.782 315.23C283.782 318.146 285.816 320.108 288.606 320.108C290.01 320.108 291.234 319.568 292.008 318.488V320H293.664V306.644H291.936ZM288.75 318.596C286.914 318.596 285.528 317.264 285.528 315.23C285.528 313.196 286.914 311.882 288.75 311.882C290.568 311.882 291.954 313.196 291.954 315.23C291.954 317.264 290.568 318.596 288.75 318.596ZM297.366 317.642C296.682 317.642 296.16 318.146 296.16 318.866C296.16 319.406 296.466 319.82 296.916 319.982L296.25 322.664H297.384L298.23 320.162C298.464 319.496 298.536 319.226 298.536 318.866C298.536 318.164 298.05 317.642 297.366 317.642ZM310.67 318.2C310.31 318.488 309.824 318.65 309.32 318.65C308.366 318.65 307.826 318.074 307.826 317.048V311.882H310.562V310.46H307.826V308.372H306.098V310.46H304.478V311.882H306.098V317.12C306.098 319.046 307.196 320.108 309.122 320.108C309.896 320.108 310.688 319.892 311.21 319.442L310.67 318.2ZM318.393 310.37C316.935 310.37 315.747 310.892 315.027 311.81V306.644H313.299V320H315.027V315.086C315.027 313.016 316.215 311.918 318.051 311.918C319.689 311.918 320.625 312.836 320.625 314.708V320H322.353V314.51C322.353 311.702 320.715 310.37 318.393 310.37ZM329.025 310.37C327.495 310.37 326.073 310.802 325.083 311.594L325.803 312.89C326.541 312.26 327.693 311.864 328.827 311.864C330.537 311.864 331.383 312.71 331.383 314.168V314.51H328.647C325.803 314.51 324.813 315.77 324.813 317.3C324.813 318.956 326.181 320.108 328.341 320.108C329.835 320.108 330.897 319.604 331.473 318.74V320H333.111V314.24C333.111 311.63 331.635 310.37 329.025 310.37ZM328.629 318.776C327.315 318.776 326.523 318.182 326.523 317.228C326.523 316.418 327.009 315.752 328.719 315.752H331.383V317.084C330.951 318.182 329.925 318.776 328.629 318.776ZM341.403 310.37C339.891 310.37 338.667 310.928 337.965 311.9V310.46H336.309V320H338.037V315.086C338.037 313.016 339.225 311.918 341.061 311.918C342.699 311.918 343.635 312.836 343.635 314.708V320H345.363V314.51C345.363 311.702 343.725 310.37 341.403 310.37ZM355.851 320H357.975L353.565 314.402L357.579 310.46H355.491L350.289 315.212V306.644H348.561V320H350.289V317.39L352.269 315.554L355.851 320ZM360.394 308.624C361.078 308.624 361.564 308.12 361.564 307.472C361.564 306.86 361.06 306.374 360.394 306.374C359.728 306.374 359.224 306.878 359.224 307.508C359.224 308.138 359.728 308.624 360.394 308.624ZM359.53 320H361.258V310.46H359.53V320ZM369.651 310.37C368.139 310.37 366.915 310.928 366.213 311.9V310.46H364.557V320H366.285V315.086C366.285 313.016 367.473 311.918 369.309 311.918C370.947 311.918 371.883 312.836 371.883 314.708V320H373.611V314.51C373.611 311.702 371.973 310.37 369.651 310.37ZM384.35 310.46V311.936C383.54 310.892 382.244 310.37 380.822 310.37C378.068 310.37 375.98 312.224 375.98 314.978C375.98 317.732 378.068 319.604 380.822 319.604C382.19 319.604 383.432 319.118 384.26 318.128V318.884C384.26 321.044 383.234 322.088 380.984 322.088C379.58 322.088 378.194 321.602 377.312 320.846L376.484 322.178C377.528 323.114 379.292 323.6 381.038 323.6C384.278 323.6 385.988 322.07 385.988 318.704V310.46H384.35ZM381.02 318.092C379.094 318.092 377.726 316.814 377.726 314.978C377.726 313.124 379.094 311.882 381.02 311.882C382.928 311.882 384.296 313.124 384.296 314.978C384.296 316.814 382.928 318.092 381.02 318.092ZM398.947 318.2C398.587 318.488 398.101 318.65 397.597 318.65C396.643 318.65 396.103 318.074 396.103 317.048V311.882H398.839V310.46H396.103V308.372H394.375V310.46H392.755V311.882H394.375V317.12C394.375 319.046 395.473 320.108 397.399 320.108C398.173 320.108 398.965 319.892 399.487 319.442L398.947 318.2ZM406.67 310.37C405.212 310.37 404.024 310.892 403.304 311.81V306.644H401.576V320H403.304V315.086C403.304 313.016 404.492 311.918 406.328 311.918C407.966 311.918 408.902 312.836 408.902 314.708V320H410.63V314.51C410.63 311.702 408.992 310.37 406.67 310.37ZM422.503 315.284C422.503 312.35 420.541 310.37 417.787 310.37C415.033 310.37 412.999 312.404 412.999 315.23C412.999 318.074 415.051 320.108 418.129 320.108C419.713 320.108 421.027 319.568 421.891 318.56L420.937 317.444C420.235 318.218 419.299 318.596 418.183 318.596C416.293 318.596 414.943 317.48 414.727 315.806H422.467C422.485 315.644 422.503 315.428 422.503 315.284ZM417.787 311.828C419.461 311.828 420.667 312.962 420.847 314.564H414.727C414.907 312.944 416.131 311.828 417.787 311.828ZM436.837 310.37C435.217 310.37 433.885 311.054 433.165 312.134C432.535 310.946 431.311 310.37 429.853 310.37C428.413 310.37 427.243 310.91 426.559 311.882V310.46H424.903V320H426.631V315.086C426.631 313.016 427.765 311.918 429.493 311.918C431.059 311.918 431.959 312.836 431.959 314.708V320H433.687V315.086C433.687 313.016 434.821 311.918 436.549 311.918C438.115 311.918 439.015 312.836 439.015 314.708V320H440.743V314.51C440.743 311.702 439.159 310.37 436.837 310.37ZM452.248 307.958C452.752 307.958 453.22 308.138 453.58 308.408L454.102 307.094C453.616 306.716 452.896 306.536 452.158 306.536C450.124 306.536 449.008 307.76 449.008 309.614V310.46H447.388V311.882H449.008V320H450.736V311.882H453.472V310.46H450.7V309.632C450.7 308.534 451.222 307.958 452.248 307.958ZM459.047 320.108C461.909 320.108 463.997 318.074 463.997 315.23C463.997 312.386 461.909 310.37 459.047 310.37C456.185 310.37 454.079 312.386 454.079 315.23C454.079 318.074 456.185 320.108 459.047 320.108ZM459.047 318.596C457.211 318.596 455.825 317.264 455.825 315.23C455.825 313.196 457.211 311.882 459.047 311.882C460.883 311.882 462.251 313.196 462.251 315.23C462.251 317.264 460.883 318.596 459.047 318.596ZM468.043 312.062V310.46H466.387V320H468.115V315.248C468.115 313.16 469.267 312.026 471.121 312.026C471.247 312.026 471.373 312.026 471.517 312.044V310.37C469.843 310.37 468.655 310.946 468.043 312.062ZM62.6402 337.37C61.1822 337.37 59.9942 337.892 59.2742 338.81V333.644H57.5462V347H59.2742V342.086C59.2742 340.016 60.4622 338.918 62.2982 338.918C63.9362 338.918 64.8722 339.836 64.8722 341.708V347H66.6002V341.51C66.6002 338.702 64.9622 337.37 62.6402 337.37ZM73.9369 347.108C76.7989 347.108 78.8869 345.074 78.8869 342.23C78.8869 339.386 76.7989 337.37 73.9369 337.37C71.0749 337.37 68.9689 339.386 68.9689 342.23C68.9689 345.074 71.0749 347.108 73.9369 347.108ZM73.9369 345.596C72.1009 345.596 70.7149 344.264 70.7149 342.23C70.7149 340.196 72.1009 338.882 73.9369 338.882C75.7729 338.882 77.1409 340.196 77.1409 342.23C77.1409 344.264 75.7729 345.596 73.9369 345.596ZM81.2767 347H83.0047V333.644H81.2767V347ZM93.576 333.644V338.9C92.784 337.874 91.596 337.37 90.246 337.37C87.456 337.37 85.422 339.314 85.422 342.23C85.422 345.146 87.456 347.108 90.246 347.108C91.65 347.108 92.874 346.568 93.648 345.488V347H95.304V333.644H93.576ZM90.39 345.596C88.554 345.596 87.168 344.264 87.168 342.23C87.168 340.196 88.554 338.882 90.39 338.882C92.208 338.882 93.594 340.196 93.594 342.23C93.594 344.264 92.208 345.596 90.39 345.596ZM99.4375 335.624C100.122 335.624 100.608 335.12 100.608 334.472C100.608 333.86 100.104 333.374 99.4375 333.374C98.7715 333.374 98.2675 333.878 98.2675 334.508C98.2675 335.138 98.7715 335.624 99.4375 335.624ZM98.5735 347H100.302V337.46H98.5735V347ZM108.695 337.37C107.183 337.37 105.959 337.928 105.257 338.9V337.46H103.601V347H105.329V342.086C105.329 340.016 106.517 338.918 108.353 338.918C109.991 338.918 110.927 339.836 110.927 341.708V347H112.655V341.51C112.655 338.702 111.017 337.37 108.695 337.37ZM123.394 337.46V338.936C122.584 337.892 121.288 337.37 119.866 337.37C117.112 337.37 115.024 339.224 115.024 341.978C115.024 344.732 117.112 346.604 119.866 346.604C121.234 346.604 122.476 346.118 123.304 345.128V345.884C123.304 348.044 122.278 349.088 120.028 349.088C118.624 349.088 117.238 348.602 116.356 347.846L115.528 349.178C116.572 350.114 118.336 350.6 120.082 350.6C123.322 350.6 125.032 349.07 125.032 345.704V337.46H123.394ZM120.064 345.092C118.138 345.092 116.77 343.814 116.77 341.978C116.77 340.124 118.138 338.882 120.064 338.882C121.972 338.882 123.34 340.124 123.34 341.978C123.34 343.814 121.972 345.092 120.064 345.092ZM128.747 347.108C129.395 347.108 129.935 346.586 129.935 345.866C129.935 345.146 129.395 344.642 128.747 344.642C128.081 344.642 127.523 345.146 127.523 345.866C127.523 346.586 128.081 347.108 128.747 347.108ZM143.131 347.144C145.093 347.144 146.785 346.46 147.937 345.164L146.767 344.03C145.795 345.056 144.607 345.542 143.221 345.542C140.377 345.542 138.271 343.49 138.271 340.7C138.271 337.91 140.377 335.858 143.221 335.858C144.607 335.858 145.795 336.326 146.767 337.352L147.937 336.218C146.785 334.922 145.093 334.256 143.149 334.256C139.315 334.256 136.471 336.974 136.471 340.7C136.471 344.426 139.315 347.144 143.131 347.144ZM151.909 339.062V337.46H150.253V347H151.981V342.248C151.981 340.16 153.133 339.026 154.987 339.026C155.113 339.026 155.239 339.026 155.383 339.044V337.37C153.709 337.37 152.521 337.946 151.909 339.062ZM166.047 342.284C166.047 339.35 164.085 337.37 161.331 337.37C158.577 337.37 156.543 339.404 156.543 342.23C156.543 345.074 158.595 347.108 161.673 347.108C163.257 347.108 164.571 346.568 165.435 345.56L164.481 344.444C163.779 345.218 162.843 345.596 161.727 345.596C159.837 345.596 158.487 344.48 158.271 342.806H166.011C166.029 342.644 166.047 342.428 166.047 342.284ZM161.331 338.828C163.005 338.828 164.211 339.962 164.391 341.564H158.271C158.451 339.944 159.675 338.828 161.331 338.828ZM171.657 337.37C170.127 337.37 168.705 337.802 167.715 338.594L168.435 339.89C169.173 339.26 170.325 338.864 171.459 338.864C173.169 338.864 174.015 339.71 174.015 341.168V341.51H171.279C168.435 341.51 167.445 342.77 167.445 344.3C167.445 345.956 168.813 347.108 170.973 347.108C172.467 347.108 173.529 346.604 174.105 345.74V347H175.743V341.24C175.743 338.63 174.267 337.37 171.657 337.37ZM171.261 345.776C169.947 345.776 169.155 345.182 169.155 344.228C169.155 343.418 169.641 342.752 171.351 342.752H174.015V344.084C173.583 345.182 172.557 345.776 171.261 345.776ZM183.765 345.2C183.405 345.488 182.919 345.65 182.415 345.65C181.461 345.65 180.921 345.074 180.921 344.048V338.882H183.657V337.46H180.921V335.372H179.193V337.46H177.573V338.882H179.193V344.12C179.193 346.046 180.291 347.108 182.217 347.108C182.991 347.108 183.783 346.892 184.305 346.442L183.765 345.2ZM187.258 335.624C187.942 335.624 188.428 335.12 188.428 334.472C188.428 333.86 187.924 333.374 187.258 333.374C186.592 333.374 186.088 333.878 186.088 334.508C186.088 335.138 186.592 335.624 187.258 335.624ZM186.394 347H188.122V337.46H186.394V347ZM196.515 337.37C195.003 337.37 193.779 337.928 193.077 338.9V337.46H191.421V347H193.149V342.086C193.149 340.016 194.337 338.918 196.173 338.918C197.811 338.918 198.747 339.836 198.747 341.708V347H200.475V341.51C200.475 338.702 198.837 337.37 196.515 337.37ZM211.214 337.46V338.936C210.404 337.892 209.108 337.37 207.686 337.37C204.932 337.37 202.844 339.224 202.844 341.978C202.844 344.732 204.932 346.604 207.686 346.604C209.054 346.604 210.296 346.118 211.124 345.128V345.884C211.124 348.044 210.098 349.088 207.848 349.088C206.444 349.088 205.058 348.602 204.176 347.846L203.348 349.178C204.392 350.114 206.156 350.6 207.902 350.6C211.142 350.6 212.852 349.07 212.852 345.704V337.46H211.214ZM207.884 345.092C205.958 345.092 204.59 343.814 204.59 341.978C204.59 340.124 205.958 338.882 207.884 338.882C209.792 338.882 211.16 340.124 211.16 341.978C211.16 343.814 209.792 345.092 207.884 345.092ZM225.146 347.108C226.856 347.108 228.278 346.388 229.034 345.056L227.72 344.228C227.108 345.164 226.172 345.596 225.128 345.596C223.256 345.596 221.852 344.3 221.852 342.23C221.852 340.196 223.256 338.882 225.128 338.882C226.172 338.882 227.108 339.314 227.72 340.25L229.034 339.404C228.278 338.072 226.856 337.37 225.146 337.37C222.212 337.37 220.106 339.386 220.106 342.23C220.106 345.074 222.212 347.108 225.146 347.108ZM235.216 347.108C238.078 347.108 240.166 345.074 240.166 342.23C240.166 339.386 238.078 337.37 235.216 337.37C232.354 337.37 230.248 339.386 230.248 342.23C230.248 345.074 232.354 347.108 235.216 347.108ZM235.216 345.596C233.38 345.596 231.994 344.264 231.994 342.23C231.994 340.196 233.38 338.882 235.216 338.882C237.052 338.882 238.42 340.196 238.42 342.23C238.42 344.264 237.052 345.596 235.216 345.596ZM242.556 347H244.284V333.644H242.556V347ZM247.583 347H249.311V333.644H247.583V347ZM261.233 342.284C261.233 339.35 259.271 337.37 256.517 337.37C253.763 337.37 251.729 339.404 251.729 342.23C251.729 345.074 253.781 347.108 256.859 347.108C258.443 347.108 259.757 346.568 260.621 345.56L259.667 344.444C258.965 345.218 258.029 345.596 256.913 345.596C255.023 345.596 253.673 344.48 253.457 342.806H261.197C261.215 342.644 261.233 342.428 261.233 342.284ZM256.517 338.828C258.191 338.828 259.397 339.962 259.577 341.564H253.457C253.637 339.944 254.861 338.828 256.517 338.828ZM267.79 347.108C269.5 347.108 270.922 346.388 271.678 345.056L270.364 344.228C269.752 345.164 268.816 345.596 267.772 345.596C265.9 345.596 264.496 344.3 264.496 342.23C264.496 340.196 265.9 338.882 267.772 338.882C268.816 338.882 269.752 339.314 270.364 340.25L271.678 339.404C270.922 338.072 269.5 337.37 267.79 337.37C264.856 337.37 262.75 339.386 262.75 342.23C262.75 345.074 264.856 347.108 267.79 347.108ZM278.862 345.2C278.502 345.488 278.016 345.65 277.512 345.65C276.558 345.65 276.018 345.074 276.018 344.048V338.882H278.754V337.46H276.018V335.372H274.29V337.46H272.67V338.882H274.29V344.12C274.29 346.046 275.388 347.108 277.314 347.108C278.088 347.108 278.88 346.892 279.402 346.442L278.862 345.2ZM282.356 335.624C283.04 335.624 283.526 335.12 283.526 334.472C283.526 333.86 283.022 333.374 282.356 333.374C281.69 333.374 281.186 333.878 281.186 334.508C281.186 335.138 281.69 335.624 282.356 335.624ZM281.492 347H283.22V337.46H281.492V347ZM290.605 347.108C293.467 347.108 295.555 345.074 295.555 342.23C295.555 339.386 293.467 337.37 290.605 337.37C287.743 337.37 285.637 339.386 285.637 342.23C285.637 345.074 287.743 347.108 290.605 347.108ZM290.605 345.596C288.769 345.596 287.383 344.264 287.383 342.23C287.383 340.196 288.769 338.882 290.605 338.882C292.441 338.882 293.809 340.196 293.809 342.23C293.809 344.264 292.441 345.596 290.605 345.596ZM303.039 337.37C301.527 337.37 300.303 337.928 299.601 338.9V337.46H297.945V347H299.673V342.086C299.673 340.016 300.861 338.918 302.697 338.918C304.335 338.918 305.271 339.836 305.271 341.708V347H306.999V341.51C306.999 338.702 305.361 337.37 303.039 337.37ZM312.933 347.108C315.471 347.108 317.055 346.01 317.055 344.282C317.055 340.574 311.007 342.41 311.007 340.16C311.007 339.404 311.745 338.846 313.257 338.846C314.193 338.846 315.147 339.044 316.011 339.602L316.749 338.234C315.921 337.694 314.517 337.37 313.275 337.37C310.827 337.37 309.297 338.522 309.297 340.232C309.297 344.03 315.327 342.176 315.327 344.318C315.327 345.128 314.661 345.614 313.059 345.614C311.817 345.614 310.521 345.2 309.711 344.624L308.991 345.992C309.783 346.622 311.349 347.108 312.933 347.108ZM336.936 337.46L334.092 345.092L331.266 337.46H329.808L326.928 345.056L324.156 337.46H322.518L326.064 347H327.72L330.51 339.764L333.264 347H334.92L338.484 337.46H336.936ZM341.102 335.624C341.786 335.624 342.272 335.12 342.272 334.472C342.272 333.86 341.768 333.374 341.102 333.374C340.436 333.374 339.932 333.878 339.932 334.508C339.932 335.138 340.436 335.624 341.102 335.624ZM340.238 347H341.966V337.46H340.238V347ZM350.089 345.2C349.729 345.488 349.243 345.65 348.739 345.65C347.785 345.65 347.245 345.074 347.245 344.048V338.882H349.981V337.46H347.245V335.372H345.517V337.46H343.897V338.882H345.517V344.12C345.517 346.046 346.615 347.108 348.541 347.108C349.315 347.108 350.107 346.892 350.629 346.442L350.089 345.2ZM357.812 337.37C356.354 337.37 355.166 337.892 354.446 338.81V333.644H352.718V347H354.446V342.086C354.446 340.016 355.634 338.918 357.47 338.918C359.108 338.918 360.044 339.836 360.044 341.708V347H361.772V341.51C361.772 338.702 360.134 337.37 357.812 337.37ZM369.804 347H371.532V333.644H369.804V347ZM378.917 347.108C381.779 347.108 383.867 345.074 383.867 342.23C383.867 339.386 381.779 337.37 378.917 337.37C376.055 337.37 373.949 339.386 373.949 342.23C373.949 345.074 376.055 347.108 378.917 347.108ZM378.917 345.596C377.081 345.596 375.695 344.264 375.695 342.23C375.695 340.196 377.081 338.882 378.917 338.882C380.753 338.882 382.121 340.196 382.121 342.23C382.121 344.264 380.753 345.596 378.917 345.596ZM391.351 337.37C389.839 337.37 388.615 337.928 387.913 338.9V337.46H386.257V347H387.985V342.086C387.985 340.016 389.173 338.918 391.009 338.918C392.647 338.918 393.583 339.836 393.583 341.708V347H395.311V341.51C395.311 338.702 393.673 337.37 391.351 337.37ZM406.05 337.46V338.936C405.24 337.892 403.944 337.37 402.522 337.37C399.768 337.37 397.68 339.224 397.68 341.978C397.68 344.732 399.768 346.604 402.522 346.604C403.89 346.604 405.132 346.118 405.96 345.128V345.884C405.96 348.044 404.934 349.088 402.684 349.088C401.28 349.088 399.894 348.602 399.012 347.846L398.184 349.178C399.228 350.114 400.992 350.6 402.738 350.6C405.978 350.6 407.688 349.07 407.688 345.704V337.46H406.05ZM402.72 345.092C400.794 345.092 399.426 343.814 399.426 341.978C399.426 340.124 400.794 338.882 402.72 338.882C404.628 338.882 405.996 340.124 405.996 341.978C405.996 343.814 404.628 345.092 402.72 345.092ZM419.612 342.284C419.612 339.35 417.65 337.37 414.896 337.37C412.142 337.37 410.108 339.404 410.108 342.23C410.108 345.074 412.16 347.108 415.238 347.108C416.822 347.108 418.136 346.568 419 345.56L418.046 344.444C417.344 345.218 416.408 345.596 415.292 345.596C413.402 345.596 412.052 344.48 411.836 342.806H419.576C419.594 342.644 419.612 342.428 419.612 342.284ZM414.896 338.828C416.57 338.828 417.776 339.962 417.956 341.564H411.836C412.016 339.944 413.24 338.828 414.896 338.828ZM428.585 337.46L425.237 345.11L421.961 337.46H420.161L424.337 347H426.101L430.277 337.46H428.585ZM432.754 335.624C433.438 335.624 433.924 335.12 433.924 334.472C433.924 333.86 433.42 333.374 432.754 333.374C432.088 333.374 431.584 333.878 431.584 334.508C431.584 335.138 432.088 335.624 432.754 335.624ZM431.89 347H433.618V337.46H431.89V347ZM441.741 345.2C441.381 345.488 440.895 345.65 440.391 345.65C439.437 345.65 438.897 345.074 438.897 344.048V338.882H441.633V337.46H438.897V335.372H437.169V337.46H435.549V338.882H437.169V344.12C437.169 346.046 438.267 347.108 440.193 347.108C440.967 347.108 441.759 346.892 442.281 346.442L441.741 345.2ZM450.945 337.46L447.651 345.092L444.321 337.46H442.521L446.733 346.982L446.427 347.648C445.959 348.746 445.437 349.124 444.609 349.124C443.961 349.124 443.367 348.872 442.899 348.422L442.161 349.718C442.755 350.294 443.691 350.6 444.609 350.6C446.067 350.6 447.165 349.97 448.011 347.954L452.637 337.46H450.945ZM454.066 347.108C454.714 347.108 455.254 346.586 455.254 345.866C455.254 345.146 454.714 344.642 454.066 344.642C453.4 344.642 452.842 345.146 452.842 345.866C452.842 346.586 453.4 347.108 454.066 347.108Z" fill="white"/>
<path d="M140.72 181.32C145.08 181.32 148.84 179.8 151.4 176.92L148.8 174.4C146.64 176.68 144 177.76 140.92 177.76C134.6 177.76 129.92 173.2 129.92 167C129.92 160.8 134.6 156.24 140.92 156.24C144 156.24 146.64 157.28 148.8 159.56L151.4 157.04C148.84 154.16 145.08 152.68 140.76 152.68C132.24 152.68 125.92 158.72 125.92 167C125.92 175.28 132.24 181.32 140.72 181.32ZM169.16 181.32C177.68 181.32 184 175.24 184 167C184 158.76 177.68 152.68 169.16 152.68C160.56 152.68 154.24 158.8 154.24 167C154.24 175.2 160.56 181.32 169.16 181.32ZM169.16 177.76C162.88 177.76 158.24 173.2 158.24 167C158.24 160.8 162.88 156.24 169.16 156.24C175.36 156.24 180 160.8 180 167C180 173.2 175.36 177.76 169.16 177.76ZM219.914 181L219.874 153H216.594L205.074 172.68L193.394 153H190.114V181H193.954V160.72L204.074 177.6H205.914L216.034 160.6L216.074 181H219.914ZM258.117 181L258.077 153H254.797L243.277 172.68L231.597 153H228.317V181H232.157V160.72L242.277 177.6H244.117L254.237 160.6L254.277 181H258.117ZM278.12 181.32C285.52 181.32 289.96 177.04 289.96 168.92V153H286.08V168.76C286.08 174.96 283.2 177.76 278.16 177.76C273.12 177.76 270.28 174.96 270.28 168.76V153H266.28V168.92C266.28 177.04 270.76 181.32 278.12 181.32ZM318.241 153V173.88L301.441 153H298.161V181H302.161V160.12L318.961 181H322.241V153H318.241ZM330.622 181H334.622V153H330.622V181ZM348.565 181H352.525V156.48H362.125V153H338.965V156.48H348.565V181ZM388.009 153H384.049L375.049 167.76L366.089 153H361.809L372.929 171.24V181H376.889V171.32L388.009 153Z" fill="white"/>
<line x1="124" y1="193" x2="389" y2="193" stroke="url(#paint0_linear_10160_43236)" stroke-width="4"/>
<defs>
<linearGradient id="paint0_linear_10160_43236" x1="124.016" y1="195.501" x2="388.98" y2="195.501" gradientUnits="userSpaceOnUse">
<stop stop-color="#FFA6A6"/>
<stop offset="0.151042" stop-color="#DB02E9"/>
<stop offset="0.307292" stop-color="#AF0AEB"/>
<stop offset="0.458333" stop-color="#730DF2"/>
<stop offset="0.619792" stop-color="#0C0BE5"/>
<stop offset="0.807292" stop-color="#10A4FE"/>
<stop offset="1" stop-color="#00BEE4"/>
</linearGradient>
</defs>
</svg>
