<svg width="24" height="24" viewBox="0 0 24 24" fill="none" xmlns="http://www.w3.org/2000/svg">
<path d="M0 8C0 3.58172 3.58172 0 8 0H24V16C24 20.4183 20.4183 24 16 24H0V8Z" fill="#333333" fill-opacity="0.8"/>
<path d="M8.90056 5.32007L4.25903 9.93721L11.9908 17.6324L19.7227 9.94026L15.0811 5.32007H8.90056Z" fill="white"/>
<path d="M8.6842 8.31894C10.5097 6.49037 13.472 6.49037 15.2975 8.31894L16.8762 9.89761L15.2975 11.4763C13.472 13.3048 10.5097 13.3048 8.6842 11.4763L7.10553 9.89761L8.6842 8.31894Z" fill="#575757"/>
<path fill-rule="evenodd" clip-rule="evenodd" d="M11.9908 11.8328C10.9242 11.8328 10.0587 10.9886 10.0587 9.94935C10.0587 8.91011 10.9242 8.06592 11.9908 8.06592C13.0575 8.06592 13.923 8.91011 13.923 9.94935C13.923 10.9886 13.0606 11.8328 11.9908 11.8328Z" fill="white"/>
<path d="M11.9908 10.7112C11.5428 10.7112 11.1771 10.3455 11.1771 9.89745C11.1771 9.44641 11.5428 9.08374 11.9908 9.08374C12.4388 9.08374 12.8046 9.44945 12.8046 9.89745C12.8046 10.3485 12.4419 10.7112 11.9908 10.7112Z" fill="#575757"/>
</svg>
