<svg width="24" height="24" viewBox="0 0 24 24" fill="none" xmlns="http://www.w3.org/2000/svg">
<path d="M0 8C0 3.58172 3.58172 0 8 0H24V16C24 20.4183 20.4183 24 16 24H0V8Z" fill="#333333" fill-opacity="0.8"/>
<path d="M20 14.204V15.04C20 15.088 19.9707 15.1307 19.928 15.1493C19.6667 15.2613 18.772 15.672 18.4 16.1893C17.4507 17.5107 16.7253 19.4 15.104 19.4H8.33999C5.94268 19.4 4 17.4507 4 15.0453V14.968C4 14.904 4.05199 14.852 4.11599 14.852H7.88668C7.96133 14.852 8.01599 14.9213 8.00934 14.9947C7.98266 15.24 8.02801 15.4907 8.144 15.7187C8.36799 16.1733 8.832 16.4574 9.33332 16.4574H11.2V15H9.35466C9.26 15 9.20402 14.8907 9.25868 14.8133C9.27866 14.7827 9.30135 14.7507 9.32533 14.7147C9.50001 14.4667 9.74934 14.0814 9.99734 13.6427C10.1667 13.3467 10.3307 13.0307 10.4627 12.7133C10.4893 12.656 10.5107 12.5973 10.532 12.54C10.568 12.4387 10.6053 12.344 10.632 12.2493C10.6587 12.1693 10.68 12.0853 10.7013 12.0067C10.764 11.7373 10.7907 11.452 10.7907 11.156C10.7907 11.04 10.7853 10.9187 10.7747 10.8027C10.7693 10.676 10.7533 10.5493 10.7373 10.4227C10.7267 10.3107 10.7067 10.2 10.6853 10.084C10.6587 9.91467 10.6213 9.74668 10.5787 9.57732L10.564 9.51334C10.532 9.39732 10.5053 9.28668 10.468 9.17068C10.3627 8.80666 10.2413 8.452 10.1133 8.12001C10.0667 7.988 10.0133 7.86134 9.95999 7.73468C9.88135 7.54401 9.80132 7.37068 9.728 7.20667C9.69068 7.132 9.65867 7.06399 9.62667 6.99467C9.59067 6.916 9.55335 6.83733 9.516 6.76268C9.48934 6.70534 9.45866 6.652 9.43733 6.59867L9.20934 6.17733C9.17733 6.12 9.23067 6.05199 9.29333 6.06933L10.72 6.45599H10.724C10.7267 6.45599 10.728 6.45734 10.7293 6.45734L10.9173 6.50933L11.124 6.56801L11.2 6.58932V5.74134C11.2 5.33199 11.528 5 11.9333 5C12.136 5 12.32 5.08267 12.452 5.21732C12.584 5.35201 12.6667 5.536 12.6667 5.74134V7.00001L12.8187 7.04266C12.8307 7.04668 12.8427 7.052 12.8533 7.06C12.8907 7.088 12.944 7.12932 13.012 7.18001C13.0653 7.22266 13.1227 7.27467 13.192 7.32801C13.3293 7.43866 13.4933 7.58133 13.6733 7.74535C13.7213 7.78667 13.768 7.82934 13.8107 7.87201C14.0427 8.08801 14.3027 8.34133 14.5507 8.62134C14.62 8.70001 14.688 8.78 14.7573 8.86399C14.8267 8.94934 14.9 9.03333 14.964 9.11734C15.048 9.22934 15.1387 9.34533 15.2173 9.46668C15.2547 9.52401 15.2973 9.58267 15.3333 9.64001C15.4347 9.79332 15.524 9.95201 15.6093 10.1107C15.6453 10.184 15.6827 10.264 15.7147 10.3427C15.8093 10.5547 15.884 10.7707 15.932 10.9867C15.9467 11.0333 15.9573 11.084 15.9627 11.1293V11.14C15.9787 11.204 15.984 11.272 15.9893 11.3413C16.0107 11.5627 16 11.784 15.952 12.0067C15.932 12.1013 15.9053 12.1907 15.8733 12.2853C15.8413 12.376 15.8093 12.4707 15.768 12.56C15.688 12.7453 15.5933 12.9307 15.4813 13.104C15.4453 13.168 15.4027 13.236 15.36 13.3C15.3133 13.368 15.2653 13.432 15.2227 13.4947C15.164 13.5747 15.1013 13.6587 15.0373 13.7333C14.98 13.812 14.9213 13.8907 14.8573 13.96C14.768 14.0653 14.6827 14.1653 14.5933 14.2614C14.54 14.324 14.4827 14.388 14.424 14.4453C14.3667 14.5093 14.308 14.5667 14.2547 14.62C14.1653 14.7093 14.0907 14.7787 14.028 14.836L13.8813 14.9707C13.86 14.9893 13.832 15 13.8027 15H12.6667V16.4574H14.096C14.416 16.4574 14.72 16.344 14.9653 16.136C15.0493 16.0627 15.416 15.7453 15.8493 15.2667C15.864 15.2507 15.8827 15.2387 15.904 15.2334L19.852 14.092C19.9254 14.0707 20 14.1267 20 14.204Z" fill="white"/>
</svg>
