<svg width="32" height="32" viewBox="0 0 32 32" fill="none" xmlns="http://www.w3.org/2000/svg">
<g clip-path="url(#clip0_8116_29188)">
<path d="M30.837 5.97309C30.748 5.95585 30.6575 5.94709 30.5668 5.94695H7.90908L7.55023 3.54623C7.32665 1.95187 5.96288 0.765627 4.35288 0.765137H1.4354C0.642637 0.765137 0 1.40777 0 2.20054C0 2.9933 0.642637 3.63594 1.4354 3.63594H4.35646C4.53897 3.63461 4.69344 3.77051 4.71531 3.95176L6.92581 19.1024C7.22887 21.0276 8.88484 22.4478 10.8337 22.4541H25.7655C27.6418 22.4565 29.2605 21.1378 29.6375 19.2998L31.9736 7.65507C32.1242 6.87674 31.6154 6.12371 30.837 5.97309Z" fill="#FF47AF"/>
<path d="M24.2368 23.7925C22.1816 23.7905 20.5139 25.455 20.5119 27.5102C20.5098 29.5653 22.1744 31.233 24.2295 31.2351C26.2847 31.237 27.9524 29.5726 27.9544 27.5174V27.5138C27.9525 25.4608 26.2897 23.7965 24.2368 23.7925Z" fill="#FF47AF"/>
<path d="M11.3899 23.7959C13.3868 23.789 15.0332 25.3594 15.1206 27.3543C15.2105 29.4075 13.619 31.1449 11.5658 31.2349H11.4761C9.50443 31.2009 7.90159 29.6348 7.82197 27.6644C7.73899 25.6109 9.33643 23.8789 11.3899 23.7959Z" fill="#FF47AF"/>
<path d="M22.8236 12.8095H20.1905V10.1764C20.1905 9.52952 19.6471 9 19 9C18.3529 9 17.8095 9.52952 17.8095 10.1764V12.8095H15.1764C14.5295 12.8095 14 13.3529 14 14C14 14.6471 14.5295 15.1905 15.1764 15.1905H17.8095V17.8236C17.8095 18.4705 18.3529 19 19 19C19.6471 19 20.1905 18.4705 20.1905 17.8236V15.1905H22.8236C23.4705 15.1905 24 14.6471 24 14C24 13.3529 23.4705 12.8095 22.8236 12.8095Z" fill="white"/>
</g>
<defs>
<clipPath id="clip0_8116_29188">
<rect width="32" height="32" fill="white"/>
</clipPath>
</defs>
</svg>
