<svg width="32" height="32" viewBox="0 0 32 32" fill="none" xmlns="http://www.w3.org/2000/svg">
<g clip-path="url(#clip0_8116_29416)">
<path d="M30.837 5.97309C30.748 5.95585 30.6575 5.94709 30.5668 5.94695H7.90908L7.55023 3.54623C7.32665 1.95187 5.96288 0.765627 4.35288 0.765137H1.4354C0.642637 0.765137 0 1.40777 0 2.20054C0 2.9933 0.642637 3.63594 1.4354 3.63594H4.35646C4.53897 3.63461 4.69344 3.77051 4.71531 3.95176L6.92581 19.1024C7.22887 21.0276 8.88484 22.4478 10.8337 22.4541H25.7655C27.6418 22.4565 29.2605 21.1378 29.6375 19.2998L31.9736 7.65507C32.1242 6.87674 31.6154 6.12371 30.837 5.97309Z" fill="url(#paint0_linear_8116_29416)"/>
<path d="M24.2368 23.7925C22.1816 23.7905 20.5139 25.455 20.5119 27.5102C20.5098 29.5653 22.1744 31.233 24.2295 31.2351C26.2847 31.237 27.9524 29.5726 27.9544 27.5174V27.5138C27.9525 25.4608 26.2897 23.7965 24.2368 23.7925Z" fill="url(#paint1_linear_8116_29416)"/>
<path d="M11.3899 23.7959C13.3868 23.789 15.0332 25.3594 15.1206 27.3543C15.2105 29.4075 13.619 31.1449 11.5658 31.2349H11.4761C9.50443 31.2009 7.90159 29.6348 7.82197 27.6644C7.73899 25.6109 9.33643 23.8789 11.3899 23.7959Z" fill="url(#paint2_linear_8116_29416)"/>
<path d="M20.8619 10.4545L19 12.3164L17.1381 10.4545C16.6807 9.9971 15.9221 10.0069 15.4645 10.4645C15.0069 10.9221 14.9971 11.6807 15.4546 12.1381L17.3164 14L15.4546 15.8619C14.9971 16.3193 15.0069 17.0779 15.4645 17.5355C15.9221 17.9931 16.6807 18.0029 17.1381 17.5455L19 15.6836L20.8619 17.5455C21.3193 18.0029 22.078 17.9931 22.5356 17.5355C22.9932 17.0779 23.0029 16.3193 22.5455 15.8619L20.6836 14L22.5455 12.1381C23.0029 11.6807 22.9932 10.9221 22.5356 10.4645C22.078 10.0069 21.3193 9.9971 20.8619 10.4545Z" fill="white"/>
</g>
<defs>
<linearGradient id="paint0_linear_8116_29416" x1="-0.00713993" y1="15.9664" x2="32.0059" y2="15.9664" gradientUnits="userSpaceOnUse">
<stop stop-color="#EB2C9C"/>
<stop offset="0.0001" stop-color="#B729BF"/>
<stop offset="1" stop-color="#7226EF"/>
</linearGradient>
<linearGradient id="paint1_linear_8116_29416" x1="-0.00713993" y1="15.9664" x2="32.0059" y2="15.9664" gradientUnits="userSpaceOnUse">
<stop stop-color="#EB2C9C"/>
<stop offset="0.0001" stop-color="#B729BF"/>
<stop offset="1" stop-color="#7226EF"/>
</linearGradient>
<linearGradient id="paint2_linear_8116_29416" x1="-0.00713993" y1="15.9664" x2="32.0059" y2="15.9664" gradientUnits="userSpaceOnUse">
<stop stop-color="#EB2C9C"/>
<stop offset="0.0001" stop-color="#B729BF"/>
<stop offset="1" stop-color="#7226EF"/>
</linearGradient>
<clipPath id="clip0_8116_29416">
<rect width="32" height="32" fill="white"/>
</clipPath>
</defs>
</svg>
