<svg width="16" height="16" viewBox="0 0 16 16" fill="none" xmlns="http://www.w3.org/2000/svg">
<g clip-path="url(#clip0_11002_13331)">
<path fill-rule="evenodd" clip-rule="evenodd" d="M8 0C3.5875 0 0 3.5875 0 8C0 12.4125 3.5875 16 8 16C12.4125 16 16 12.4125 16 8C16 3.5875 12.4125 0 8 0Z" fill="#00BD9B"/>
<path fill-rule="evenodd" clip-rule="evenodd" d="M11.8688 5.30391C12.0625 5.49766 12.0625 5.81641 11.8688 6.01016L7.18127 10.6977C7.0844 10.7945 6.95627 10.8445 6.82815 10.8445C6.70002 10.8445 6.5719 10.7945 6.47502 10.6977L4.13127 8.35391C3.93752 8.16016 3.93752 7.84141 4.13127 7.64766C4.32502 7.45391 4.64377 7.45391 4.83752 7.64766L6.82815 9.63828L11.1625 5.30391C11.3563 5.10703 11.675 5.10703 11.8688 5.30391Z" fill="white"/>
</g>
<defs>
<clipPath id="clip0_11002_13331">
<rect width="16" height="16" fill="white"/>
</clipPath>
</defs>
</svg>
