<svg width="16" height="16" viewBox="0 0 16 16" fill="none" xmlns="http://www.w3.org/2000/svg">
<path d="M13.3333 3.21844V1.81456C13.7299 1.58334 14 1.15809 14 0.666656V0.333344C14 0.149094 13.8509 0 13.6667 0H2.33334C2.14909 0 2 0.149094 2 0.333344V0.666687C2 1.15809 2.27006 1.58334 2.66666 1.81459V3.21844C2.66666 4.53941 3.22981 5.80372 4.21159 6.68719L5.67025 8L4.21159 9.31281C3.22981 10.1963 2.66666 11.4606 2.66666 12.7816V14.1854C2.27006 14.4167 2 14.8419 2 15.3333V15.6667C2 15.8509 2.14909 16 2.33334 16H13.6667C13.8509 16 14 15.8509 14 15.6667V15.3333C14 14.8419 13.73 14.4167 13.3334 14.1854V12.7816C13.3334 11.4606 12.7702 10.1963 11.7884 9.31281L10.3298 8L11.7884 6.68719C12.7702 5.80372 13.3333 4.53937 13.3333 3.21844ZM10.8965 5.69628L8.88737 7.50456C8.74675 7.63087 8.66666 7.81087 8.66666 8C8.66666 8.18913 8.74675 8.36916 8.88737 8.49544L10.8965 10.3037C11.5977 10.9349 12 11.8382 12 12.7816V14H11.1665L8.26659 10.1335C8.14094 9.9655 7.85903 9.9655 7.73338 10.1335L4.8335 14H4V12.7816C4 11.8382 4.40234 10.9349 5.10353 10.3037L7.11266 8.49541C7.25328 8.36909 7.33337 8.18909 7.33337 7.99997C7.33337 7.81084 7.25328 7.63081 7.11266 7.50453L5.10353 5.69625C4.40234 5.06509 4 4.16178 4 3.21844V2H12V3.21844C12 4.16178 11.5977 5.06509 10.8965 5.69628Z" fill="#F79B11"/>
<path d="M10.2976 4.66797H5.70219C5.57035 4.66797 5.45088 4.74578 5.3975 4.86622C5.34413 4.987 5.36657 5.12763 5.45544 5.22528L7.77641 7.36656C7.83988 7.42419 7.91997 7.45281 8.00003 7.45281C8.0801 7.45281 8.16019 7.42416 8.22366 7.36656L10.5443 5.22528C10.6332 5.12763 10.6556 4.987 10.6022 4.86622C10.5489 4.74578 10.4294 4.66797 10.2976 4.66797Z" fill="#F79B11"/>
</svg>
