<svg width="840" height="202" viewBox="0 0 840 202" fill="none" xmlns="http://www.w3.org/2000/svg">
<path d="M46.2049 2.34373L37.6431 27.9334L29.177 2.34373H23.4373L14.7798 27.7899L6.45721 2.34373H0L11.0968 35.8256H17.7454L26.1637 11.049L34.4385 35.8256H41.0392L52.136 2.34373H46.2049Z" fill="black"/>
<path d="M63.4197 30.612V21.3805H79.5866V16.2626H63.4197V7.55733H81.6433V2.34373H57.2016V35.8256H82.313V30.612H63.4197Z" fill="black"/>
<path d="M90.6319 0C88.4316 0 86.7575 1.57843 86.7575 3.92215C86.7575 5.69191 87.6663 6.93552 89.0056 7.46166L87.0924 14.8277H90.9667L93.4539 8.03564C94.3149 5.8354 94.5062 5.02227 94.5062 3.92215C94.5062 1.62626 92.8799 0 90.6319 0Z" fill="black"/>
<path d="M129.525 35.8256L121.825 24.8244C126.368 23.0546 128.951 19.3238 128.951 14.2537C128.951 6.83986 123.499 2.34373 114.698 2.34373H100.922V35.8256H107.14V26.068H114.698C115.128 26.068 115.559 26.068 115.989 26.0202L122.829 35.8256H129.525ZM122.685 14.2537C122.685 18.4628 119.863 20.9501 114.411 20.9501H107.14V7.60516H114.411C119.863 7.60516 122.685 10.0445 122.685 14.2537Z" fill="black"/>
<path d="M142.126 30.612V21.3805H158.293V16.2626H142.126V7.55733H160.35V2.34373H135.908V35.8256H161.02V30.612H142.126Z" fill="black"/>
<path d="M224.171 2.34373L215.609 27.9334L207.143 2.34373H201.403L192.745 27.7899L184.423 2.34373H177.966L189.062 35.8256H195.711L204.129 11.049L212.404 35.8256H219.005L230.102 2.34373H224.171Z" fill="black"/>
<path d="M250.434 36.3039C260.814 36.3039 268.467 29.0335 268.467 19.0846C268.467 9.13576 260.814 1.86541 250.434 1.86541C240.055 1.86541 232.402 9.18359 232.402 19.0846C232.402 28.9857 240.055 36.3039 250.434 36.3039ZM250.434 30.8511C243.69 30.8511 238.668 25.9245 238.668 19.0846C238.668 12.2448 243.69 7.31817 250.434 7.31817C257.179 7.31817 262.201 12.2448 262.201 19.0846C262.201 25.9245 257.179 30.8511 250.434 30.8511Z" fill="black"/>
<path d="M303.661 35.8256L295.96 24.8244C300.504 23.0546 303.087 19.3238 303.087 14.2537C303.087 6.83986 297.634 2.34373 288.833 2.34373H275.058V35.8256H281.276V26.068H288.833C289.264 26.068 289.694 26.068 290.125 26.0202L296.964 35.8256H303.661ZM296.821 14.2537C296.821 18.4628 293.999 20.9501 288.546 20.9501H281.276V7.60516H288.546C293.999 7.60516 296.821 10.0445 296.821 14.2537Z" fill="black"/>
<path d="M333.385 35.8256H340.656L325.732 17.3149L339.795 2.34373H332.811L316.262 19.5151V2.34373H310.044V35.8256H316.262V27.2638L321.571 21.811L333.385 35.8256Z" fill="black"/>
<path d="M344.889 35.8256H351.107V2.34373H344.889V35.8256Z" fill="black"/>
<path d="M383.744 2.34373V25.0157L365.282 2.34373H360.164V35.8256H366.334V13.1536L384.797 35.8256H389.915V2.34373H383.744Z" fill="black"/>
<path d="M421.75 29.1292C419.597 30.3728 417.253 30.8511 414.862 30.8511C407.783 30.8511 402.761 25.8767 402.761 19.0846C402.761 12.1491 407.783 7.31817 414.91 7.31817C418.497 7.31817 421.51 8.51395 424.141 11.1447L428.063 7.31817C424.906 3.73083 420.219 1.86541 414.623 1.86541C404.148 1.86541 396.495 9.08793 396.495 19.0846C396.495 29.0814 404.148 36.3039 414.527 36.3039C419.262 36.3039 424.141 34.8689 427.633 32.0469V18.702H421.75V29.1292Z" fill="black"/>
<path d="M464.694 36.3039C475.073 36.3039 482.726 29.0335 482.726 19.0846C482.726 9.13576 475.073 1.86541 464.694 1.86541C454.314 1.86541 446.661 9.18359 446.661 19.0846C446.661 28.9857 454.314 36.3039 464.694 36.3039ZM464.694 30.8511C457.95 30.8511 452.927 25.9245 452.927 19.0846C452.927 12.2448 457.95 7.31817 464.694 7.31817C471.438 7.31817 476.46 12.2448 476.46 19.0846C476.46 25.9245 471.438 30.8511 464.694 30.8511Z" fill="black"/>
<path d="M512.898 2.34373V25.0157L494.435 2.34373H489.317V35.8256H495.487V13.1536L513.95 35.8256H519.068V2.34373H512.898Z" fill="black"/>
<path d="M551.638 36.3039C560.822 36.3039 565.174 31.7121 565.174 26.355C565.174 14.0624 545.324 18.702 545.324 11.5751C545.324 9.04009 547.429 7.03118 552.595 7.03118C555.512 7.03118 558.813 7.89214 561.826 9.6619L563.787 4.83095C560.87 2.9177 556.66 1.86541 552.643 1.86541C543.459 1.86541 539.154 6.45721 539.154 11.8621C539.154 24.2982 559.052 19.563 559.052 26.7855C559.052 29.2727 556.852 31.1381 551.638 31.1381C547.525 31.1381 543.268 29.6075 540.589 27.4551L538.437 32.286C541.211 34.6776 546.424 36.3039 551.638 36.3039Z" fill="black"/>
<path d="M586.981 36.3039C597.36 36.3039 605.013 29.0335 605.013 19.0846C605.013 9.13576 597.36 1.86541 586.981 1.86541C576.602 1.86541 568.949 9.18359 568.949 19.0846C568.949 28.9857 576.602 36.3039 586.981 36.3039ZM586.981 30.8511C580.237 30.8511 575.214 25.9245 575.214 19.0846C575.214 12.2448 580.237 7.31817 586.981 7.31817C593.725 7.31817 598.747 12.2448 598.747 19.0846C598.747 25.9245 593.725 30.8511 586.981 30.8511Z" fill="black"/>
<path d="M648.243 35.8256L648.195 2.34373H643.077L630.019 24.5374L616.722 2.34373H611.604V35.8256H617.535V13.9189L628.536 31.9991H631.311L642.312 13.6319L642.36 35.8256H648.243Z" fill="black"/>
<path d="M663.505 30.612V21.3805H679.672V16.2626H663.505V7.55733H681.728V2.34373H657.287V35.8256H682.398V30.612H663.505Z" fill="black"/>
<path d="M696.122 35.8256H702.34V7.60516H713.437V2.34373H685.025V7.60516H696.122V35.8256Z" fill="black"/>
<path d="M741.636 2.34373V16.1669H724.321V2.34373H718.103V35.8256H724.321V21.4762H741.636V35.8256H747.854V2.34373H741.636Z" fill="black"/>
<path d="M756.826 35.8256H763.044V2.34373H756.826V35.8256Z" fill="black"/>
<path d="M795.681 2.34373V25.0157L777.218 2.34373H772.1V35.8256H778.27V13.1536L796.733 35.8256H801.851V2.34373H795.681Z" fill="black"/>
<path d="M833.686 29.1292C831.534 30.3728 829.19 30.8511 826.799 30.8511C819.72 30.8511 814.697 25.8767 814.697 19.0846C814.697 12.1491 819.72 7.31817 826.846 7.31817C830.434 7.31817 833.447 8.51395 836.078 11.1447L840 7.31817C836.843 3.73083 832.156 1.86541 826.559 1.86541C816.084 1.86541 808.431 9.08793 808.431 19.0846C808.431 29.0814 816.084 36.3039 826.464 36.3039C831.199 36.3039 836.078 34.8689 839.57 32.0469V18.702H833.686V29.1292Z" fill="black"/>
<path d="M0 201.832H47.1343C80.171 201.832 102.813 182.608 102.813 151.992C102.813 121.376 80.171 102.152 47.1343 102.152H0V201.832ZM28.1951 179.333V124.651H45.9951C62.9407 124.651 74.3326 134.762 74.3326 151.992C74.3326 169.223 62.9407 179.333 45.9951 179.333H28.1951Z" fill="url(#paint0_linear_8129_29554)"/>
<path d="M117.647 201.832H145.842V102.152H117.647V201.832Z" fill="url(#paint1_linear_8129_29554)"/>
<path d="M244.079 123.939V102.152H165.901V201.832H194.096V167.656H238.098V145.869H194.096V123.939H244.079Z" fill="url(#paint2_linear_8129_29554)"/>
<path d="M257.265 123.939V102.152H335.442V201.832H307.247V167.656H263.246V145.869H307.247V123.939H257.265Z" fill="url(#paint3_linear_8129_29554)"/>
<path d="M376.539 180.045V161.818H420.826V140.743H376.539V123.939H426.806V102.152H348.629V201.832H428.657V180.045H376.539Z" fill="url(#paint4_linear_8129_29554)"/>
<path d="M505.963 201.832H536.151L514.649 170.504C527.038 164.523 534.158 153.701 534.158 139.034C534.158 116.25 517.07 102.152 489.872 102.152H444.304V201.832H472.499V175.346H487.878L505.963 201.832ZM505.678 139.034C505.678 148.147 499.839 153.559 488.163 153.559H472.499V124.367H488.163C499.839 124.367 505.678 129.778 505.678 139.034Z" fill="url(#paint5_linear_8129_29554)"/>
<path d="M601.831 180.045V161.818H557.545V140.743H601.831V123.939H551.564V102.152H629.741V201.832H549.713V180.045H601.831Z" fill="url(#paint6_linear_8129_29554)"/>
<path d="M712.6 102.152V155.267L668.599 102.152H645.388V201.832H673.013V148.717L717.015 201.832H740.226V102.152H712.6Z" fill="url(#paint7_linear_8129_29554)"/>
<path d="M781.331 201.832H809.526V124.509H840V102.152H750.715V124.509H781.331V201.832Z" fill="url(#paint8_linear_8129_29554)"/>
<defs>
<linearGradient id="paint0_linear_8129_29554" x1="0.0517865" y1="152.1" x2="839.937" y2="152.1" gradientUnits="userSpaceOnUse">
<stop stop-color="#FFA6A6"/>
<stop offset="0.151042" stop-color="#DB02E9"/>
<stop offset="0.307292" stop-color="#AF0AEB"/>
<stop offset="0.458333" stop-color="#730DF2"/>
<stop offset="0.619792" stop-color="#0C0BE5"/>
<stop offset="0.807292" stop-color="#10A4FE"/>
<stop offset="1" stop-color="#00BEE4"/>
</linearGradient>
<linearGradient id="paint1_linear_8129_29554" x1="0.0517865" y1="152.1" x2="839.937" y2="152.1" gradientUnits="userSpaceOnUse">
<stop stop-color="#FFA6A6"/>
<stop offset="0.151042" stop-color="#DB02E9"/>
<stop offset="0.307292" stop-color="#AF0AEB"/>
<stop offset="0.458333" stop-color="#730DF2"/>
<stop offset="0.619792" stop-color="#0C0BE5"/>
<stop offset="0.807292" stop-color="#10A4FE"/>
<stop offset="1" stop-color="#00BEE4"/>
</linearGradient>
<linearGradient id="paint2_linear_8129_29554" x1="0.0517865" y1="152.1" x2="839.937" y2="152.1" gradientUnits="userSpaceOnUse">
<stop stop-color="#FFA6A6"/>
<stop offset="0.151042" stop-color="#DB02E9"/>
<stop offset="0.307292" stop-color="#AF0AEB"/>
<stop offset="0.458333" stop-color="#730DF2"/>
<stop offset="0.619792" stop-color="#0C0BE5"/>
<stop offset="0.807292" stop-color="#10A4FE"/>
<stop offset="1" stop-color="#00BEE4"/>
</linearGradient>
<linearGradient id="paint3_linear_8129_29554" x1="0.0517865" y1="152.1" x2="839.937" y2="152.1" gradientUnits="userSpaceOnUse">
<stop stop-color="#FFA6A6"/>
<stop offset="0.151042" stop-color="#DB02E9"/>
<stop offset="0.307292" stop-color="#AF0AEB"/>
<stop offset="0.458333" stop-color="#730DF2"/>
<stop offset="0.619792" stop-color="#0C0BE5"/>
<stop offset="0.807292" stop-color="#10A4FE"/>
<stop offset="1" stop-color="#00BEE4"/>
</linearGradient>
<linearGradient id="paint4_linear_8129_29554" x1="0.0517865" y1="152.1" x2="839.937" y2="152.1" gradientUnits="userSpaceOnUse">
<stop stop-color="#FFA6A6"/>
<stop offset="0.151042" stop-color="#DB02E9"/>
<stop offset="0.307292" stop-color="#AF0AEB"/>
<stop offset="0.458333" stop-color="#730DF2"/>
<stop offset="0.619792" stop-color="#0C0BE5"/>
<stop offset="0.807292" stop-color="#10A4FE"/>
<stop offset="1" stop-color="#00BEE4"/>
</linearGradient>
<linearGradient id="paint5_linear_8129_29554" x1="0.0517865" y1="152.1" x2="839.937" y2="152.1" gradientUnits="userSpaceOnUse">
<stop stop-color="#FFA6A6"/>
<stop offset="0.151042" stop-color="#DB02E9"/>
<stop offset="0.307292" stop-color="#AF0AEB"/>
<stop offset="0.458333" stop-color="#730DF2"/>
<stop offset="0.619792" stop-color="#0C0BE5"/>
<stop offset="0.807292" stop-color="#10A4FE"/>
<stop offset="1" stop-color="#00BEE4"/>
</linearGradient>
<linearGradient id="paint6_linear_8129_29554" x1="0.0517865" y1="152.1" x2="839.937" y2="152.1" gradientUnits="userSpaceOnUse">
<stop stop-color="#FFA6A6"/>
<stop offset="0.151042" stop-color="#DB02E9"/>
<stop offset="0.307292" stop-color="#AF0AEB"/>
<stop offset="0.458333" stop-color="#730DF2"/>
<stop offset="0.619792" stop-color="#0C0BE5"/>
<stop offset="0.807292" stop-color="#10A4FE"/>
<stop offset="1" stop-color="#00BEE4"/>
</linearGradient>
<linearGradient id="paint7_linear_8129_29554" x1="0.0517865" y1="152.1" x2="839.937" y2="152.1" gradientUnits="userSpaceOnUse">
<stop stop-color="#FFA6A6"/>
<stop offset="0.151042" stop-color="#DB02E9"/>
<stop offset="0.307292" stop-color="#AF0AEB"/>
<stop offset="0.458333" stop-color="#730DF2"/>
<stop offset="0.619792" stop-color="#0C0BE5"/>
<stop offset="0.807292" stop-color="#10A4FE"/>
<stop offset="1" stop-color="#00BEE4"/>
</linearGradient>
<linearGradient id="paint8_linear_8129_29554" x1="0.0517865" y1="152.1" x2="839.937" y2="152.1" gradientUnits="userSpaceOnUse">
<stop stop-color="#FFA6A6"/>
<stop offset="0.151042" stop-color="#DB02E9"/>
<stop offset="0.307292" stop-color="#AF0AEB"/>
<stop offset="0.458333" stop-color="#730DF2"/>
<stop offset="0.619792" stop-color="#0C0BE5"/>
<stop offset="0.807292" stop-color="#10A4FE"/>
<stop offset="1" stop-color="#00BEE4"/>
</linearGradient>
</defs>
</svg>
