<svg width="40" height="40" viewBox="0 0 40 40" fill="none" xmlns="http://www.w3.org/2000/svg">
<g clip-path="url(#clip0_7955_25061)">
<path d="M9.85106 21.4238L9.85107 21.4238C10.8406 22.8447 12.2371 24.3474 14.0201 25.8852L13.367 26.6425L14.0201 25.8852C16.7268 28.2197 19.4043 29.8519 19.9996 30.2051C20.5924 29.8509 23.2506 28.219 25.9466 25.8855C27.723 24.3479 29.1184 22.8451 30.112 21.4235L30.9317 21.9964L30.112 21.4235C31.398 19.5836 31.9905 17.9053 31.9999 16.4228C32.0117 14.555 31.2894 12.765 30.0436 11.5113L30.0436 11.5113C28.9097 10.3702 27.4511 9.75684 25.9359 9.75684C23.8892 9.75684 21.9771 10.9042 20.8602 12.7877L20 14.2382L19.1399 12.7876C18.023 10.9041 16.111 9.75684 14.0642 9.75684C12.4615 9.75684 10.9463 10.4346 9.79299 11.7016C8.65589 12.9509 8.01153 14.6246 8.00011 16.4258L9.85106 21.4238ZM9.85106 21.4238C8.56937 19.5835 7.99079 17.9066 8.00011 16.4258L9.85106 21.4238ZM9.03216 21.9941L9.03046 21.9953L9.03216 21.9941Z" fill="white" stroke="#A0A0A0" stroke-width="2"/>
</g>
<defs>
<clipPath id="clip0_7955_25061">
<rect width="26" height="26" fill="white" transform="translate(7 7)"/>
</clipPath>
</defs>
</svg>
