<svg width="40" height="40" viewBox="0 0 40 40" fill="none" xmlns="http://www.w3.org/2000/svg">
<g clip-path="url(#clip0_7945_24963)" filter="url(#filter0_iiii_7945_24963)">
<path d="M20 31.2434C19.8685 31.2434 19.737 31.2094 19.6192 31.1414C19.4912 31.0675 16.4509 29.3023 13.367 26.6425C11.5392 25.0661 10.0801 23.5025 9.03046 21.9953C7.67217 20.045 6.98911 18.1691 7.00013 16.4195C7.01303 14.3837 7.7422 12.4691 9.05347 11.0285C10.3869 9.56355 12.1664 8.75684 14.0642 8.75684C16.4965 8.75684 18.7202 10.1193 20.0001 12.2776C21.2799 10.1193 23.5036 8.75684 25.9359 8.75684C27.7289 8.75684 29.4396 9.48473 30.753 10.8065C32.1943 12.2569 33.0133 14.3064 32.9999 16.4292C32.9888 18.1757 32.293 20.0488 30.9317 21.9964C29.8788 23.5028 28.4218 25.0657 26.6011 26.6416C23.5284 29.3012 20.5099 31.0664 20.3829 31.1402C20.2646 31.209 20.1322 31.2434 20 31.2434Z" fill="#D7D7D6"/>
</g>
<defs>
<filter id="filter0_iiii_7945_24963" x="7" y="7" width="26" height="28" filterUnits="userSpaceOnUse" color-interpolation-filters="sRGB">
<feFlood flood-opacity="0" result="BackgroundImageFix"/>
<feBlend mode="normal" in="SourceGraphic" in2="BackgroundImageFix" result="shape"/>
<feColorMatrix in="SourceAlpha" type="matrix" values="0 0 0 0 0 0 0 0 0 0 0 0 0 0 0 0 0 0 127 0" result="hardAlpha"/>
<feOffset/>
<feGaussianBlur stdDeviation="0.5"/>
<feComposite in2="hardAlpha" operator="arithmetic" k2="-1" k3="1"/>
<feColorMatrix type="matrix" values="0 0 0 0 0 0 0 0 0 0 0 0 0 0 0 0 0 0 0.1 0"/>
<feBlend mode="normal" in2="shape" result="effect1_innerShadow_7945_24963"/>
<feColorMatrix in="SourceAlpha" type="matrix" values="0 0 0 0 0 0 0 0 0 0 0 0 0 0 0 0 0 0 127 0" result="hardAlpha"/>
<feOffset dy="1"/>
<feGaussianBlur stdDeviation="0.5"/>
<feComposite in2="hardAlpha" operator="arithmetic" k2="-1" k3="1"/>
<feColorMatrix type="matrix" values="0 0 0 0 0 0 0 0 0 0 0 0 0 0 0 0 0 0 0.09 0"/>
<feBlend mode="normal" in2="effect1_innerShadow_7945_24963" result="effect2_innerShadow_7945_24963"/>
<feColorMatrix in="SourceAlpha" type="matrix" values="0 0 0 0 0 0 0 0 0 0 0 0 0 0 0 0 0 0 127 0" result="hardAlpha"/>
<feOffset dy="3"/>
<feGaussianBlur stdDeviation="1"/>
<feComposite in2="hardAlpha" operator="arithmetic" k2="-1" k3="1"/>
<feColorMatrix type="matrix" values="0 0 0 0 0 0 0 0 0 0 0 0 0 0 0 0 0 0 0.05 0"/>
<feBlend mode="normal" in2="effect2_innerShadow_7945_24963" result="effect3_innerShadow_7945_24963"/>
<feColorMatrix in="SourceAlpha" type="matrix" values="0 0 0 0 0 0 0 0 0 0 0 0 0 0 0 0 0 0 127 0" result="hardAlpha"/>
<feOffset dy="6"/>
<feGaussianBlur stdDeviation="1"/>
<feComposite in2="hardAlpha" operator="arithmetic" k2="-1" k3="1"/>
<feColorMatrix type="matrix" values="0 0 0 0 0 0 0 0 0 0 0 0 0 0 0 0 0 0 0.01 0"/>
<feBlend mode="normal" in2="effect3_innerShadow_7945_24963" result="effect4_innerShadow_7945_24963"/>
</filter>
<clipPath id="clip0_7945_24963">
<rect width="26" height="26" fill="white" transform="translate(7 7)"/>
</clipPath>
</defs>
</svg>
